<svg xmlns="http://www.w3.org/2000/svg" viewBox="0 0 400 500" fill="none">
  <g stroke="#ccc" stroke-width="3" stroke-linecap="round" stroke-linejoin="round">
    <path d="M148 71c53 5 89 38 101 84 7 26 9 55 5 84l22 16-18 15c-4 48-28 84-65 111-18 13-28 31-30 53l-2 32h112v-42c0-28-9-51-24-70-12-15-19-36-20-58-2-25 4-47 10-70 8-30 8-64-2-97-15-51-53-84-110-93l21 35Z"/>
    <path d="M238 213c-8 7-13 16-14 27 0 14 7 26 18 35 8-2 15-7 20-15 5-9 6-19 4-29-4-10-13-16-28-18Z"/>
    <path d="M179 139c17 2 31 7 42 16" stroke-dasharray="5 7"/>
    <path d="M163 381c31 4 57-2 79-18" stroke-dasharray="7 7"/>
    <path d="M204 276c14 9 28 9 42 0" stroke-dasharray="7 7"/>
  </g>
</svg>
