<?xml version="1.0" encoding="UTF-8" standalone="no"?>
<!-- Created with Inkscape (http://www.inkscape.org/) -->

<svg
   width="69.481247mm"
   height="87.7556mm"
   viewBox="0 0 69.481247 87.7556"
   version="1.1"
   id="svg1"
   xml:space="preserve"
   inkscape:version="1.4.4 (dcaf3e7, 2026-05-05)"
   sodipodi:docname="head-top.svg"
   xmlns:inkscape="http://www.inkscape.org/namespaces/inkscape"
   xmlns:sodipodi="http://sodipodi.sourceforge.net/DTD/sodipodi-0.dtd"
   xmlns="http://www.w3.org/2000/svg"
   xmlns:svg="http://www.w3.org/2000/svg"><sodipodi:namedview
     id="namedview1"
     pagecolor="#ffffff"
     bordercolor="#000000"
     borderopacity="0.25"
     inkscape:showpageshadow="2"
     inkscape:pageopacity="0.0"
     inkscape:pagecheckerboard="0"
     inkscape:deskcolor="#d1d1d1"
     inkscape:document-units="mm"
     inkscape:zoom="0.71891835"
     inkscape:cx="171.09036"
     inkscape:cy="17.387232"
     inkscape:window-width="1920"
     inkscape:window-height="1009"
     inkscape:window-x="-8"
     inkscape:window-y="-8"
     inkscape:window-maximized="1"
     inkscape:current-layer="layer1" /><defs
     id="defs1" /><g
     inkscape:label="Layer 1"
     inkscape:groupmode="layer"
     id="layer1"
     transform="translate(-59.604394,-144.01687)"><path
       style="fill:#000000"
       d="m 93.037527,231.67463 c -0.976535,-0.21516 -2.592208,-1.78774 -2.386766,-2.32311 0.160829,-0.41912 0.283865,-0.37927 1.134177,0.36731 1.876335,1.64745 2.834652,1.7025 5.14651,0.29568 0.935885,-0.56951 1.804343,-0.93707 1.929908,-0.8168 0.327762,0.31393 0.03214,0.68035 -1.273801,1.57886 -1.149872,0.79113 -3.19935,1.19565 -4.550028,0.89806 z m -1.548221,-3.55899 c -3.063408,-0.43221 -4.550379,-0.9153 -7.540413,-2.44974 -3.539457,-1.8164 -6.55275,-4.27489 -9.453307,-7.71279 -1.997552,-2.36761 -5.322439,-7.63452 -6.430502,-10.18646 -1.111638,-2.56018 -2.441326,-7.53023 -2.902246,-10.84788 -0.295508,-2.12704 -0.379248,-2.32272 -1.54507,-3.61058 -2.011462,-2.22202 -2.662517,-3.18713 -3.433562,-5.08985 -1.140356,-2.81407 -0.518752,-6.89867 1.166725,-7.66663 0.933296,-0.42523 1.036821,-0.39942 2.083335,0.51943 0.935249,0.82116 0.935249,0.82116 0.935249,-0.17677 0,-1.60893 0.895741,-7.1456 1.512365,-9.34806 2.051441,-7.32739 5.924446,-14.08222 10.954543,-19.10559 4.852935,-4.84644 9.143631,-7.20703 14.893566,-8.19391 8.678381,-1.4895 18.650991,4.34443 25.596281,14.9737 3.65598,5.59521 6.30634,13.40649 6.9782,20.56645 0.15762,1.67982 0.49034,2.25733 0.81424,1.41329 0.0786,-0.20496 0.49092,-0.51677 0.91617,-0.69291 2.67075,-1.10627 4.07053,4.31259 2.18141,8.44474 -0.57413,1.25581 -2.87226,4.39399 -3.68724,5.03506 -0.54694,0.43022 -0.71945,0.97248 -1.15696,3.63683 -0.90881,5.53446 -2.33383,9.98689 -4.14594,12.95382 -0.52218,0.85497 -1.37136,2.26886 -1.88705,3.14198 -1.45689,2.46669 -3.77167,5.37653 -5.90853,7.42743 -5.81082,5.57708 -12.711436,7.98849 -19.941264,6.96844 z m 6.14019,-0.90246 c 4.763374,-0.77255 8.247734,-2.41478 12.068844,-5.6882 2.01314,-1.72459 5.18297,-5.3519 5.9826,-6.84602 0.38944,-0.72767 0.17827,-0.70989 -0.85981,0.0724 -1.95735,1.47504 -5.90305,3.51501 -8.91203,4.60763 -4.97663,1.80712 -6.042639,1.99371 -11.509377,2.01455 -5.395774,0.0206 -6.431795,-0.12536 -10.570327,-1.48884 -2.865107,-0.94395 -5.810725,-2.38707 -8.52461,-4.1764 -1.111947,-0.73313 -2.074424,-1.28027 -2.138837,-1.21586 -0.311166,0.31117 6.224906,7.56172 6.816575,7.56172 0.09883,0 0.503856,0.27855 0.900066,0.619 2.352236,2.02122 6.902541,3.95343 10.739008,4.56013 2.734614,0.43246 3.227701,0.43081 6.007898,-0.0201 z m -3.498386,-7.02381 c -0.169374,-0.53365 0.244263,-1.31022 0.697885,-1.31022 0.127702,0 0.232186,0.41672 0.232186,0.92604 0,0.86479 0.05582,0.92604 0.843969,0.92604 0.464183,0 1.565511,-0.13003 2.447396,-0.28896 1.589103,-0.28639 2.219734,-0.42715 4.778424,-1.06655 2.34003,-0.58477 6.48531,-2.37815 8.46667,-3.66294 0.58208,-0.37745 1.38907,-0.85335 1.79331,-1.05757 1.27192,-0.64254 3.71354,-2.75114 4.68296,-4.04422 1.65008,-2.20101 3.11423,-6.39004 4.38315,-12.54055 0.36922,-1.78965 0.9003,-7.1105 1.05635,-10.58364 0.17799,-3.96141 0.17337,-4.0101 -0.39706,-4.19115 -0.55785,-0.17705 -0.56128,-0.20071 -0.10252,-0.70763 0.35689,-0.39436 0.46088,-0.89707 0.41919,-2.02656 -0.07,-1.89649 -0.54362,-5.03693 -1.04454,-6.92606 -0.21223,-0.80037 -0.49071,-1.87193 -0.61887,-2.38125 -0.79259,-3.15012 -3.2529,-8.64806 -5.05333,-11.29247 -0.41416,-0.6083 -0.75301,-1.17248 -0.75301,-1.25374 0,-0.16535 -0.0204,-0.19147 -2.62273,-3.35172 -4.63184,-5.62499 -11.16498,-9.64001 -16.59046,-10.19586 -1.602823,-0.16422 -1.688899,-0.14421 -1.688899,0.39267 0,0.78588 -0.643708,0.70859 -1.022501,-0.12277 -0.241188,-0.52935 -0.44975,-0.65458 -0.902366,-0.54182 -0.323771,0.0807 -1.124456,0.22368 -1.7793,0.31781 -2.763825,0.39731 -6.710332,2.12924 -9.702111,4.25778 -1.708548,1.21556 -5.253301,4.54607 -6.745271,6.33758 -2.798063,3.35983 -6.621735,10.48979 -7.648409,14.26191 -0.943877,3.46792 -1.188631,4.61596 -1.715495,8.04674 -0.573481,3.73434 -0.53586,4.20359 0.345141,4.30496 0.433161,0.0498 0.727604,0.24432 0.727604,0.48059 0,0.23627 -0.294443,0.43076 -0.727604,0.4806 -0.727604,0.0837 -0.727604,0.0837 -0.719169,2.77812 0.0212,6.7724 1.583986,16.07437 3.46828,20.64383 1.538644,3.73125 2.815027,5.21548 6.79959,7.90682 2.163097,1.46105 6.829217,3.90357 7.464007,3.9071 0.225557,0.001 0.523214,0.10738 0.661458,0.23583 0.344209,0.31981 3.356818,1.10071 5.229587,1.35555 0.846257,0.11516 1.610241,0.28097 1.697743,0.36848 0.0875,0.0875 0.980711,0.15909 1.98491,0.15909 1.719671,0 1.815817,-0.0315 1.653835,-0.54186 z m 0.02048,-3.11047 c -0.211844,-0.66746 0.07513,-1.37475 0.557785,-1.37475 0.273845,0 0.361343,0.24289 0.302422,0.83952 -0.09488,0.96068 -0.621229,1.28818 -0.860207,0.53523 z m 0.158194,-3.02573 c -0.411461,-0.41146 -0.388332,-1.1271 0.04813,-1.48933 0.465032,-0.38594 0.70326,-0.11917 0.70326,0.78754 0,0.8502 -0.311781,1.1414 -0.751395,0.70179 z m -0.178676,-3.65339 c -0.184269,-0.58057 0.306967,-1.3995 0.695467,-1.1594 0.129032,0.0798 0.234604,0.49516 0.234604,0.92313 0,0.90895 -0.663106,1.07741 -0.930071,0.23627 z m -0.02447,-3.31396 c -0.184376,-0.73462 0.200064,-1.34174 0.666909,-1.05321 0.1582,0.0978 0.287637,0.52793 0.287637,0.9559 0,0.98523 -0.713437,1.05796 -0.954546,0.0973 z m 0.0063,-2.85359 c -0.250814,-0.65361 -0.0078,-1.34735 0.506772,-1.44644 0.39527,-0.0761 0.463746,0.0578 0.393837,0.77033 -0.09066,0.92406 -0.645597,1.34066 -0.900609,0.67611 z m 0.03869,-3.29291 c -0.2035,-0.64117 0.08717,-1.42841 0.479167,-1.29774 0.393881,0.13129 0.385303,1.56962 -0.01015,1.70144 -0.169552,0.0565 -0.380611,-0.12515 -0.46902,-0.4037 z m 0.127997,-3.0799 c -0.4031,-0.4857 -0.140161,-1.82045 0.32833,-1.66669 0.396432,0.13012 0.583907,1.49494 0.251066,1.82778 -0.148364,0.14836 -0.374829,0.0854 -0.579396,-0.16109 z m -0.194861,-3.49019 c -0.176601,-0.46022 0.214245,-1.28696 0.608414,-1.28696 0.129661,0 0.273057,0.38695 0.318657,0.8599 0.06222,0.64532 -0.02238,0.85989 -0.339033,0.85989 -0.232069,0 -0.496686,-0.19477 -0.588038,-0.43283 z m 0.18132,-3.00933 c -0.352574,-0.6588 -0.10944,-1.58492 0.416088,-1.58492 0.255567,0 0.379045,0.29658 0.379045,0.91043 0,1.09471 -0.392188,1.42739 -0.795133,0.67449 z m 0.0095,-3.29493 c -0.388608,-0.46824 -0.111977,-1.46499 0.406585,-1.46499 0.243082,0 0.379045,0.27912 0.379045,0.77814 0,0.91976 -0.343267,1.21987 -0.78563,0.68685 z m -0.0077,-3.18433 c -0.17829,-0.21482 -0.247279,-0.59094 -0.15331,-0.83582 0.09397,-0.24488 0.03041,-0.53204 -0.141245,-0.63813 -0.507393,-0.31359 -0.04141,-1.04004 0.667132,-1.04004 0.766085,0 1.135616,0.44934 0.71524,0.86972 -0.161945,0.16194 -0.294446,0.62079 -0.294446,1.01966 0,0.87774 -0.352785,1.15549 -0.793371,0.62461 z m -26.140581,-1.67506 c -0.275892,-0.18019 -0.265769,-0.28849 0.05158,-0.55187 0.51747,-0.42946 1.614587,-0.26495 1.614587,0.2421 0,0.44786 -1.132399,0.65839 -1.66617,0.30977 z m 3.248793,-0.0531 c -0.102927,-0.16654 -0.06837,-0.42157 0.07679,-0.56673 0.385267,-0.38527 1.515587,-0.15404 1.515587,0.31004 0,0.47998 -1.32261,0.69318 -1.592377,0.25669 z m 3.175,0 c -0.102927,-0.16654 -0.06837,-0.42157 0.07679,-0.56673 0.385267,-0.38527 1.515587,-0.15404 1.515587,0.31004 0,0.47998 -1.32261,0.69318 -1.592377,0.25669 z m 3.175,0 c -0.102927,-0.16654 -0.06837,-0.42157 0.07679,-0.56673 0.385267,-0.38527 1.515587,-0.15404 1.515587,0.31004 0,0.47998 -1.32261,0.69318 -1.592377,0.25669 z m 3.393178,0.1022 c -0.568783,-0.23138 -0.04175,-0.88806 0.71274,-0.88806 0.690817,0 1.216263,0.54763 0.863715,0.90018 -0.182935,0.18293 -1.114595,0.17577 -1.576455,-0.0121 z m 3.149093,-0.009 c -0.471213,-0.18907 0.10863,-0.87942 0.738647,-0.87942 0.526644,0 1.143656,0.62023 0.879649,0.88424 -0.199925,0.19992 -1.114811,0.1972 -1.618296,-0.005 z m 2.978539,-0.10034 c -0.10506,-0.16999 -0.02694,-0.41591 0.173607,-0.54647 0.551699,-0.3592 1.687543,-0.15959 1.687543,0.29656 0,0.48787 -1.582731,0.7004 -1.86115,0.24991 z m 3.36998,0.0599 c -0.275892,-0.18019 -0.265769,-0.28849 0.05158,-0.55187 0.51747,-0.42946 1.614587,-0.26495 1.614587,0.2421 0,0.44786 -1.132399,0.65839 -1.66617,0.30977 z m 6.475063,0.0453 c -0.264007,-0.26401 0.353005,-0.88424 0.879649,-0.88424 0.526643,0 1.143656,0.62023 0.879649,0.88424 -0.09575,0.0958 -0.491594,0.17409 -0.879649,0.17409 -0.388056,0 -0.783898,-0.0783 -0.879649,-0.17409 z m 3.316001,-0.005 c -0.523812,-0.21018 0.14209,-0.87942 0.87503,-0.87942 0.58168,0 1.04906,0.57844 0.72733,0.90017 -0.18652,0.18653 -1.11576,0.17449 -1.60236,-0.0208 z m 2.97854,-0.10034 c -0.10506,-0.17 -0.0269,-0.41591 0.17361,-0.54648 0.5517,-0.35919 1.68754,-0.15958 1.68754,0.29656 0,0.48788 -1.58273,0.70041 -1.86115,0.24992 z m 3.44377,0.007 c -0.10292,-0.16654 -0.0684,-0.42157 0.0768,-0.56673 0.38527,-0.38527 1.51559,-0.15405 1.51559,0.31003 0,0.47998 -1.32261,0.69319 -1.59238,0.2567 z m 3.10121,0.0531 c -0.27589,-0.1802 -0.26577,-0.2885 0.0516,-0.55188 0.51747,-0.42946 1.61459,-0.26495 1.61459,0.24211 0,0.44785 -1.1324,0.65839 -1.66617,0.30977 z m 3.17648,0.0405 c -0.52229,-0.20957 0.1411,-0.87943 0.87094,-0.87943 0.79451,0 1.3745,0.66658 0.77886,0.89515 -0.4902,0.1881 -1.15765,0.18175 -1.6498,-0.0157 z m 3.25219,-0.0857 c -0.25873,-0.41863 0.10846,-0.79375 0.77697,-0.79375 0.64433,0 1.32655,0.5864 1.02872,0.88424 -0.27192,0.27192 -1.62357,0.20418 -1.80569,-0.0905 z m 3.175,0 c -0.27548,-0.44574 0.12497,-0.79375 0.91335,-0.79375 0.81933,0 1.28102,0.65655 0.6358,0.90414 -0.61725,0.23686 -1.36758,0.18339 -1.54915,-0.11039 z m -25.423787,-1.98495 c -0.205003,-0.8168 0.25043,-1.46612 0.707646,-1.0089 0.361326,0.36132 0.21636,1.46214 -0.21108,1.60286 -0.176534,0.0581 -0.399989,-0.20917 -0.496566,-0.59396 z m -0.0047,-3.1938 c -0.184376,-0.73461 0.200064,-1.34174 0.666909,-1.05321 0.1582,0.0978 0.287637,0.52793 0.287637,0.95591 0,0.98523 -0.713437,1.05795 -0.954546,0.0973 z m 0.171345,-2.87833 c -0.427341,-0.51492 -0.246487,-1.30842 0.323219,-1.41814 0.36763,-0.0708 0.459982,0.10124 0.459982,0.85686 0,1.00346 -0.260995,1.1905 -0.783201,0.56128 z m 0.03181,-3.1189 c -0.411461,-0.41146 -0.388332,-1.1271 0.04813,-1.48933 0.465032,-0.38594 0.70326,-0.11916 0.70326,0.78754 0,0.85021 -0.311781,1.1414 -0.751395,0.70179 z m -0.225058,-3.54436 c -0.176601,-0.46021 0.214245,-1.28695 0.608414,-1.28695 0.129661,0 0.273057,0.38695 0.318657,0.85989 0.06222,0.64533 -0.02238,0.8599 -0.339033,0.8599 -0.232069,0 -0.496686,-0.19478 -0.588038,-0.43284 z m 0.04112,-3.02178 c -0.275656,-0.44602 0.113684,-1.57247 0.543501,-1.57247 0.271421,0 0.391834,0.28458 0.391834,0.92605 0,0.91652 -0.538426,1.28863 -0.935335,0.64642 z m 0.149705,-3.28247 c -0.388608,-0.46825 -0.111977,-1.465 0.406585,-1.465 0.243082,0 0.379045,0.27912 0.379045,0.77814 0,0.91976 -0.343267,1.21987 -0.78563,0.68686 z m 1.1e-5,-3.17499 c -0.425266,-0.51241 -0.242719,-1.30577 0.325637,-1.41522 0.35478,-0.0683 0.459982,0.0938 0.459982,0.70895 0,0.93723 -0.340152,1.24303 -0.785619,0.70627 z m -0.149716,-3.33213 c -0.264452,-0.42789 0.118732,-1.62395 0.482073,-1.50473 0.497017,0.16308 0.57767,1.78435 0.08877,1.78435 -0.218913,0 -0.475791,-0.12583 -0.570839,-0.27962 z m 0.02112,-3.38727 c -0.199517,-0.62862 0.09549,-1.4121 0.483789,-1.28485 0.479336,0.15709 0.541452,1.77674 0.06814,1.77674 -0.217695,0 -0.466063,-0.22135 -0.551929,-0.49189 z m 0,-3.175 c -0.204916,-0.64563 0.08173,-1.36019 0.545644,-1.36019 0.244831,0 0.368567,0.31089 0.368567,0.92604 0,1.01172 -0.635164,1.31335 -0.914211,0.43415 z m -29.67781,39.3195 c -0.151826,-3.75285 -0.273615,-4.72273 -0.685216,-5.45676 -1.378536,-2.45843 -2.549143,-2.16722 -3.375051,0.8396 -0.391681,1.42597 -0.207343,2.37862 0.948783,4.90327 0.701148,1.53111 2.661764,4.27795 3.05348,4.27795 0.144899,0 0.168265,-1.83859 0.058,-4.56406 z m 62.83836,0.33073 c 0.76151,-1.59135 0.9505,-2.30013 0.95422,-3.57859 0.005,-1.66489 -0.6834,-3.6818 -1.34272,-3.93481 -0.41863,-0.16065 -1.90546,1.25029 -2.23731,2.12311 -0.1272,0.33458 -0.30298,2.66654 -0.3906,5.18212 -0.15932,4.57379 -0.15932,4.57379 0.95376,3.38317 0.61219,-0.65485 1.54039,-2.0836 2.06265,-3.175 z"
       id="path1" /></g></svg>
