<svg xmlns="http://www.w3.org/2000/svg" viewBox="0 0 400 500" width="400" height="500" fill="none">
  <g stroke="#555" stroke-width="2.5" stroke-linecap="round" stroke-linejoin="round">
    <!-- Back skull outline -->
    <path d="M200 48c-40 0-76 16-100 44-22 26-34 60-34 96 0 34 9 64 24 90 13 24 30 44 40 68 8 20 10 46 10 72h120c0-26 2-52 10-72 10-24 27-44 40-68 15-26 24-56 24-90 0-36-12-70-34-96-24-28-60-44-100-44Z"/>
    <!-- Left ear -->
    <path d="M66 192c-8 4-14 12-14 22 0 11 6 20 16 26 4 2 8 4 12 4"/>
    <!-- Right ear -->
    <path d="M334 192c8 4 14 12 14 22 0 11-6 20-16 26-4 2-8 4-12 4"/>
    <!-- Occipital bone curve indication (dashed) -->
    <path d="M138 278c16-14 38-22 62-22s46 8 62 22" stroke-dasharray="6 6"/>
    <!-- Nape hairline (dashed) -->
    <path d="M148 366c14 10 32 16 52 16s38-6 52-16" stroke-dasharray="6 6"/>
    <!-- Hairline at top (dashed) -->
    <path d="M150 110c14-12 32-18 50-18s36 6 50 18" stroke-dasharray="5 6"/>
    <!-- Neck and shoulders -->
    <path d="M170 418v38"/>
    <path d="M230 418v38"/>
    <path d="M140 456c10 4 20 6 30 6h60c10 0 20-2 30-6"/>
  </g>
</svg>
