<?xml version="1.0" encoding="UTF-8" standalone="no"?>
<!-- Created with Inkscape (http://www.inkscape.org/) -->

<svg
   width="77.097725mm"
   height="118.69686mm"
   viewBox="0 0 77.097725 118.69686"
   version="1.1"
   id="svg1"
   xml:space="preserve"
   inkscape:version="1.4.4 (dcaf3e7, 2026-05-05)"
   sodipodi:docname="back.svg"
   xmlns:inkscape="http://www.inkscape.org/namespaces/inkscape"
   xmlns:sodipodi="http://sodipodi.sourceforge.net/DTD/sodipodi-0.dtd"
   xmlns="http://www.w3.org/2000/svg"
   xmlns:svg="http://www.w3.org/2000/svg"><sodipodi:namedview
     id="namedview1"
     pagecolor="#ffffff"
     bordercolor="#000000"
     borderopacity="0.25"
     inkscape:showpageshadow="2"
     inkscape:pageopacity="0.0"
     inkscape:pagecheckerboard="0"
     inkscape:deskcolor="#d1d1d1"
     inkscape:document-units="mm"
     inkscape:zoom="0.71891835"
     inkscape:cx="148.13921"
     inkscape:cy="-9.0413605"
     inkscape:window-width="1920"
     inkscape:window-height="1009"
     inkscape:window-x="-8"
     inkscape:window-y="-8"
     inkscape:window-maximized="1"
     inkscape:current-layer="layer1" /><defs
     id="defs1" /><g
     inkscape:label="Layer 1"
     inkscape:groupmode="layer"
     id="layer1"
     transform="translate(-66.011281,-150.7189)"><path
       style="display:inline;fill:#000000"
       d="m 66.336541,269.41576 c -1.654682,-0.89224 6.119068,-3.43298 7.880751,-5.01447 3.330105,-2.77248 9.423312,-4.24977 9.8318,-9.18173 1.325889,-10.09456 -0.980439,-20.21134 -2.741072,-30.10793 -2.325239,-9.50122 -5.016909,-18.9427 -8.410842,-28.11842 -4.654149,-3.72583 -8.149749,4.43436 -4.82762,7.94104 3.131258,3.41471 1.615838,9.99105 5.792725,11.92075 1.926607,0.0833 4.428115,-4.20188 2.34301,-0.14112 -5.32774,3.73066 -5.76134,-4.48473 -7.132481,-7.73315 -1.855787,-3.81917 -5.320628,-9.51887 -0.937585,-12.88213 2.597531,-0.89444 5.450347,-0.99573 3.3844,-4.55761 -1.874304,-10.37379 -1.239953,-22.2571 5.981885,-30.57922 7.058992,-7.98961 18.398496,-10.98337 28.754688,-10.09075 11.90336,0.0813 24.69114,6.12577 29.28633,17.69008 2.80515,6.51012 3.35953,13.86556 1.37186,20.6838 0.0635,2.67323 -3.34127,7.90319 1.29078,4.86174 5.46304,0.4513 5.96816,6.93495 3.44304,10.6916 -3.23476,3.49757 -1.28336,10.38265 -6.21617,11.95535 -3.35526,0.76467 -4.16944,-5.55806 -1.39091,-1.08118 5.37074,1.03197 3.16985,-6.91422 6.06987,-9.66533 2.3414,-3.26098 3.93685,-10.30902 -1.71549,-10.89201 -5.60904,0.56854 -5.10147,7.88567 -7.38642,11.872 -3.83682,10.64301 -6.61206,21.67933 -7.49491,32.98454 -0.49887,6.38813 -1.4432,13.08149 0.31513,19.31624 4.18616,3.43266 9.10874,5.8799 13.58397,8.87294 -4.16071,-0.65598 -8.30273,-4.75669 -12.35838,-6.83769 -2.59301,-2.41593 0.95403,6.49785 -1.63166,1.37659 -2.8056,-11.83178 -0.70469,-24.03057 1.05331,-35.83765 1.89248,-9.57469 5.26364,-18.77304 8.54958,-27.9353 -0.27788,-2.99005 3.43755,-6.36959 3.23051,-10.30993 2.56586,-10.31174 -0.16062,-22.32739 -8.49215,-29.33118 -6.49976,-5.71801 -15.44583,-7.55112 -23.88429,-7.86257 -0.59959,2.77654 -3.30733,-1.55657 -5.838098,0.34257 -9.536151,1.24578 -19.330202,6.08997 -23.488554,15.21542 -3.879349,7.71176 -3.577653,16.7771 -2.212844,25.07121 1.772402,4.63087 2.876818,9.51279 4.560206,14.23342 4.736959,14.30358 8.082519,29.17482 8.410693,44.29123 -0.656631,3.61556 -0.170987,9.39287 -2.465635,11.55001 1.740075,-6.33982 -6.378613,3.19639 -9.168688,3.60385 -2.359438,1.39349 -4.846851,2.55696 -7.340739,3.68499 z m 33.894089,-40.08312 c -3.710818,0.37005 0.73729,-1.79236 0,-2e-5 z m 6.49233,0.21831 c -2.59308,-1.65424 3.30766,-0.72945 0,0 z m 4.36083,-0.21968 c -3.88587,0.40856 1.31184,-1.83218 0,0 z m -7.98616,-0.0409 c -2.44357,-0.26264 1.41345,-3.96664 0.85846,-0.0829 z m 10.62117,-0.004 c -2.14978,-1.37528 3.52562,-0.79895 0,0 z m -17.727083,-0.26049 c -4.038569,-0.9245 2.732759,-0.92703 0,0 z m 21.755253,-0.11336 c -3.3822,-1.1251 3.60937,-0.49707 0,0 z m -25.459419,-0.2006 c -3.046566,-0.91989 2.731764,-0.68718 0,0 z m 28.815599,-0.73073 c -2.51499,1.15319 1.80605,-3.35536 0,0 z m -32.255183,0.25094 c -4.038569,-0.9245 2.732759,-0.92703 0,0 z m -1.953017,-2.11666 c -2.148195,-2.16892 1.524026,-1.75465 0,0 z m 16.50814,-0.75711 c -1.88228,-0.8821 0.85439,-2.95307 0,4e-5 z m 18.45328,-0.30123 c -1.39426,-1.63298 2.39738,-2.65881 0,0 z m -35.795998,-2.48202 c -2.188375,-0.9984 0.1832,-2.98991 0,0 z m 17.057458,-0.75324 c -1.3944,-1.60224 1.51994,-2.99723 0,0 z m 20.10198,-0.71985 c -2.51499,1.15319 1.80608,-3.35534 0,0 z m -38.146334,-1.99543 c -2.305465,-1.17035 0.315891,-3.04483 0,0 z m 18.128134,-0.92862 c -1.61644,-1.63792 1.58929,-3.2336 0,0 z m 20.76979,-0.26459 c -1.89777,-0.54033 2.42196,-2.76528 0,-3e-5 z m -40.163746,-2.38125 c -2.489031,-1.65752 0.884946,-2.27291 0,0 z m 19.595436,-1.02169 c -1.88228,-0.88209 0.85439,-2.95306 0,4e-5 z m 21.57373,-0.0366 c -1.05947,-2.49553 2.46906,-1.48704 0,0 z M 82.584388,212.1804 c -2.43422,-1.68484 0.990418,-2.11394 0,0 z m 44.064822,-1.44097 c -2.38927,1.35134 1.79075,-3.57263 0,0 z m -23.28595,0.10663 c -1.72301,-0.96127 0.96851,-2.74153 2e-5,0 z m -22.035608,-2.44132 c -1.494352,0.88932 -0.677443,-3.14589 0,2e-5 z m 46.546358,-0.85916 c -1.54074,-1.19988 1.98679,-2.08887 0,0 z m -24.73854,-0.28005 c -1.50815,-1.82987 1.62295,-2.76046 0,0 z m -23.576764,-1.78761 c -2.382472,-1.59109 1.14528,-1.73908 0,0 z m 49.643074,-1.05834 c -1.13014,-2.4275 3.03793,-1.86446 0,0 z m -25.9834,-0.79375 c -1.70966,-2.25949 1.35457,-2.25357 0,0 z m -25.071829,-1.29939 c -2.466099,-0.34439 -0.581317,-3.42184 0,0 z m 53.277859,-1.51916 c -2.34209,0.798 1.74226,-2.56496 0,0 z m -28.20603,-0.88561 c -1.70966,-2.2595 1.35457,-2.25357 0,0 z M 75.865267,199.3925 c -3.045044,-2.7748 1.394004,-1.55805 0,0 z m 27.497993,-3.09852 c -1.72301,-0.96128 0.9685,-2.74153 2e-5,0 z m -0.24543,-3.57633 c -1.3944,-1.6022 1.51995,-2.99725 0,0 z m 0.28526,-3.60725 c -1.88229,-0.8821 0.85439,-2.95308 0,3e-5 z m 0,-3.70417 c -1.88228,-0.8821 0.85439,-2.95307 0,4e-5 z m -0.28526,-3.53649 c -1.3944,-1.60223 1.51994,-2.99723 0,0 z m 0,-3.70417 c -1.3944,-1.60221 1.51995,-2.99724 0,0 z m 0.10055,-3.6439 c -1.70966,-2.2595 1.35457,-2.25357 0,0 z m 0.18471,-3.66752 c -1.88228,-0.88209 0.85438,-2.95309 0,3e-5 z m -0.28526,-3.5365 c -1.3944,-1.60221 1.51995,-2.99723 0,0 z m 0.0176,-3.70837 c -1.50814,-1.82986 1.62295,-2.76048 0,0 z m 0.23534,-3.53021 c -2.08153,-1.11697 1.34521,-3.77325 0,0 z m -0.25298,-3.60933 c -1.3944,-1.6022 1.51995,-2.99726 0,0 z"
       id="path1" /></g></svg>
