<?xml version="1.0" encoding="UTF-8" standalone="no"?>
<!-- Created with Inkscape (http://www.inkscape.org/) -->

<svg
   width="83.501953mm"
   height="115.35483mm"
   viewBox="0 0 83.501953 115.35483"
   version="1.1"
   id="svg1"
   xml:space="preserve"
   sodipodi:docname="head-front.svg"
   inkscape:version="1.4.4 (dcaf3e7, 2026-05-05)"
   xmlns:inkscape="http://www.inkscape.org/namespaces/inkscape"
   xmlns:sodipodi="http://sodipodi.sourceforge.net/DTD/sodipodi-0.dtd"
   xmlns="http://www.w3.org/2000/svg"
   xmlns:svg="http://www.w3.org/2000/svg"><sodipodi:namedview
     id="namedview1"
     pagecolor="#ffffff"
     bordercolor="#000000"
     borderopacity="0.25"
     inkscape:showpageshadow="2"
     inkscape:pageopacity="0.0"
     inkscape:pagecheckerboard="0"
     inkscape:deskcolor="#d1d1d1"
     inkscape:document-units="mm"
     inkscape:zoom="0.71891835"
     inkscape:cx="170.39487"
     inkscape:cy="342.87621"
     inkscape:window-width="1920"
     inkscape:window-height="1009"
     inkscape:window-x="-8"
     inkscape:window-y="-8"
     inkscape:window-maximized="1"
     inkscape:current-layer="layer1" /><defs
     id="defs1" /><g
     inkscape:label="Layer 1"
     inkscape:groupmode="layer"
     id="layer1"
     transform="translate(-59.890476,-57.715469)"><path
       style="fill:#000000"
       d="m 59.934915,172.84174 c -0.216771,-0.35075 0.347058,-0.70112 1.965847,-1.22161 5.297042,-1.70316 15.275424,-6.45202 16.347257,-7.7799 0.464454,-0.57541 1.908992,-3.66204 1.908992,-4.07906 0,-0.18553 0.101806,-0.45044 0.226235,-0.58868 0.358832,-0.39868 1.60825,-4.59842 2.172795,-7.30354 1.024622,-4.90967 0.952725,-7.67552 -0.45287,-17.42178 -0.361793,-2.50863 -0.585034,-3.27491 -1.271848,-4.36562 -2.176471,-3.45641 -4.555279,-8.509 -5.035495,-10.69541 -0.242986,-1.1063 -0.511953,-1.19596 -1.325632,-0.44187 -2.218178,2.05574 -5.954851,0.2029 -5.954851,-2.95272 0,-1.78389 -0.645676,-3.92055 -2.112951,-6.99216 -1.092439,-2.28692 -1.355595,-3.12543 -1.493727,-4.75953 -0.107478,-1.27146 -0.05429,-2.3271 0.148158,-2.94052 0.683552,-2.071181 3.973154,-3.751209 6.041018,-3.085196 0.544157,0.17526 1.141082,0.439168 1.3265,0.586461 0.185418,0.147293 0.381343,0.221073 0.435389,0.163956 0.05405,-0.05712 -0.354529,-2.306505 -0.907945,-4.998641 -1.187175,-5.7751 -1.490102,-9.293253 -1.070742,-12.435416 0.345697,-2.59022 1.507051,-6.348852 2.623061,-8.489333 4.821901,-9.248289 11.262546,-13.585488 22.348613,-15.049795 3.24594,-0.428741 12.533031,-0.341658 15.918151,0.149262 6.01784,0.872724 11.55583,3.303238 15.25974,6.6972 3.04532,2.790486 6.52257,8.470738 7.62716,12.459332 0.18135,0.654844 0.44076,1.547813 0.57647,1.984375 0.67208,2.161972 0.52803,8.610548 -0.28075,12.567709 -0.44783,2.191128 -0.86864,4.355291 -1.07247,5.51556 -0.20201,1.149936 -0.20201,1.149936 0.6198,0.944732 2.2752,-0.568109 4.67585,0.246387 5.96289,2.023094 0.69743,0.96278 0.81205,1.35138 0.81205,2.75308 0,1.99865 -0.53659,3.87423 -1.8633,6.51292 -1.15475,2.29668 -1.84087,4.67942 -1.84087,6.39291 0,2.93295 -3.0998,4.75552 -5.48079,3.22251 -0.97778,-0.62956 -1.30818,-0.45582 -1.67249,0.87946 -0.63737,2.33614 -2.53622,6.33173 -4.36945,9.19428 -1.15059,1.79663 -1.38244,2.37669 -1.53338,3.83646 -0.0978,0.94588 -0.35035,2.85088 -0.56119,4.23333 -0.49911,3.27254 -0.93479,8.15102 -0.93473,10.46655 9e-5,3.76086 1.7122,10.49887 3.84498,15.13189 0.48567,1.05502 1.00754,1.91823 1.1597,1.91823 0.15216,0 0.90405,0.39944 1.67086,0.88765 1.96789,1.25291 7.73303,4.26128 9.45942,4.93611 2.56945,1.0044 4.23791,1.83516 4.23791,2.11015 0,0.40072 -1.1238,0.32387 -2.28279,-0.15611 -3.45352,-1.43023 -7.89821,-3.59203 -10.11352,-4.91899 -0.92438,-0.5537 -1.79177,-1.00673 -1.92754,-1.00673 -0.34157,0 0.15057,0.88105 1.66041,2.97251 1.4174,1.96341 1.53574,2.31916 0.77151,2.31916 -1.03948,0 -5.17488,-6.98054 -6.88814,-11.62717 -2.78082,-7.54198 -3.26308,-13.41329 -1.85932,-22.63638 0.55793,-3.66574 0.58088,-4.10355 0.20755,-3.96029 -0.19539,0.075 -0.52996,0.4231 -0.74348,0.77359 -0.71037,1.16607 -4.97147,5.38481 -7.54688,7.47185 -0.57389,0.46506 -1.63874,1.33522 -2.36634,1.9337 -2.88569,2.37355 -6.22762,3.36798 -10.26598,3.05475 -3.383203,-0.26241 -5.523425,-1.22087 -9.709828,-4.34835 -2.122803,-1.58586 -7.428237,-6.81024 -8.140687,-8.01632 -0.667228,-1.12953 -1.216708,-1.21223 -1.018564,-0.1533 0.543162,2.9028 0.952664,7.76743 0.95242,11.31417 -2.34e-4,3.38868 -0.111083,4.58361 -0.638153,6.87916 -0.676551,2.9466 -1.317939,5.03523 -2.274987,7.40834 -0.322778,0.80036 -0.792182,2.02103 -1.043119,2.71259 -0.250938,0.69157 -0.637498,1.46547 -0.859023,1.71979 -0.221526,0.25433 -0.745743,1.08379 -1.164928,1.84325 -0.989537,1.79281 -2.784826,4.2641 -3.219566,4.43187 -0.829306,0.32003 -0.521642,-0.7636 0.717954,-2.52872 0.739601,-1.05316 1.301872,-1.95769 1.249491,-2.01007 -0.05238,-0.0524 -1.733511,0.73332 -3.735843,1.74601 -3.381496,1.7102 -7.552702,3.48892 -10.06169,4.29057 -0.582083,0.18598 -1.171443,0.43291 -1.309688,0.54872 -0.340146,0.28496 -1.666485,0.2677 -1.846784,-0.024 z m 46.161935,-27.01951 c 1.62222,-0.30765 3.75051,-1.25075 4.85623,-2.15192 0.42122,-0.3433 1.73091,-1.38999 2.91041,-2.32597 8.19326,-6.50169 14.39044,-15.8888 16.51843,-25.02113 1.25293,-5.37696 1.75305,-12.52426 0.97197,-13.89062 -0.54884,-0.96009 -0.48043,-1.56884 0.20561,-1.82967 0.53262,-0.2025 0.68519,-0.654343 1.31559,-3.896052 0.39221,-2.016844 0.91169,-4.500427 1.15441,-5.519073 0.31455,-1.320072 0.44587,-3.106109 0.45718,-6.217708 0.0185,-5.096855 -0.37724,-6.950759 -2.35838,-11.047351 -4.18277,-8.649118 -10.58035,-13.292261 -20.30423,-14.736119 -4.20346,-0.624154 -13.778249,-0.564638 -17.725515,0.110181 -6.646623,1.136297 -12.07645,3.87939 -15.334746,7.746956 -3.843997,4.562788 -6.158682,9.610441 -6.821395,14.87547 -0.416884,3.312008 -0.231968,5.562409 0.913787,11.120655 0.509951,2.473854 1.06183,5.271823 1.226397,6.217708 0.181753,1.044663 0.497777,1.905403 0.80502,2.192613 0.476429,0.44536 0.481477,0.52988 0.08692,1.45521 -0.339236,0.79559 -0.384803,1.52936 -0.239642,3.85899 0.726031,11.6518 4.353872,20.60026 11.705705,28.8734 2.671558,3.00634 4.250312,4.47705 7.15905,6.6691 2.743726,2.06769 5.076615,3.23387 7.194859,3.59661 1.2938,0.22155 3.9176,0.18133 5.30234,-0.0813 z m -7.309724,-10.88312 c -0.06288,-0.10174 0.199629,-0.43194 0.58335,-0.73377 0.578221,-0.45483 0.641054,-0.61701 0.366999,-0.94723 -0.181871,-0.21914 -0.506076,-0.39844 -0.720455,-0.39844 -0.214379,0 -0.726109,-0.23948 -1.137178,-0.53219 -1.0566,-0.75237 -3.855952,-2.11364 -4.346533,-2.11364 -0.455837,0 -0.540022,-0.71032 -0.156136,-1.31741 0.159243,-0.25183 0.572769,-0.36334 1.159853,-0.31276 0.501807,0.0432 0.990959,-0.0485 1.087004,-0.20395 0.09605,-0.1554 0.351946,-0.28255 0.568668,-0.28255 0.216723,0 0.894306,-0.24475 1.50574,-0.54389 1.34861,-0.6598 3.475302,-0.9711 3.737372,-0.54706 0.11979,0.19383 -0.0837,0.2972 -0.58496,0.2972 -0.42276,0 -1.769238,0.36893 -2.992181,0.81984 -1.222943,0.45091 -2.431892,0.88151 -2.686554,0.9569 -0.69046,0.20439 -0.559115,0.60451 0.198438,0.60451 0.453436,0 0.661569,0.14562 0.661811,0.46302 2.27e-4,0.29828 0.612002,0.79251 1.719439,1.38906 0.945496,0.50933 1.719244,1.01074 1.719438,1.11425 1.94e-4,0.10352 1.654779,0.18592 3.676859,0.18313 3.52809,-0.005 3.72303,-0.0339 4.82865,-0.71888 0.63368,-0.39259 1.46953,-0.8767 1.85745,-1.07581 0.38793,-0.1991 0.76374,-0.58537 0.83513,-0.85839 0.0748,-0.28606 0.36452,-0.49638 0.68374,-0.49638 1.00115,0 0.57336,-0.38696 -1.10359,-0.99828 -0.90737,-0.33077 -1.98683,-0.77725 -2.39881,-0.99219 -0.41197,-0.21493 -1.24541,-0.3926 -1.85208,-0.39483 -0.80965,-0.003 -0.99748,-0.0723 -0.70616,-0.26053 0.68746,-0.44428 1.66765,-0.2911 3.70918,0.57965 1.08865,0.46433 2.51514,0.91081 3.16998,0.99219 1.05876,0.13156 1.1999,0.22854 1.27435,0.87555 0.0602,0.52298 -0.0342,0.72761 -0.33573,0.72761 -0.2307,0 -1.10181,0.37494 -1.9358,0.83321 -0.834,0.45826 -2.20097,1.17763 -3.03771,1.59859 -1.57302,0.79137 -1.70048,0.97246 -1.26162,1.79248 0.31729,0.59285 -0.0322,0.77289 -1.24051,0.63911 -2.10545,-0.2331 -3.24445,-0.25886 -4.92669,-0.11144 -0.993538,0.0871 -1.857876,0.0751 -1.920754,-0.0267 z m 1.599524,-4.88559 c -0.396192,-0.20555 -1.478507,-0.36885 -2.444605,-0.36885 -2.459798,0 -1.820392,-0.33613 0.791887,-0.41629 1.441778,-0.0442 2.411998,0.0553 2.875398,0.2949 0.86819,0.44895 2.76701,0.35226 3.79602,-0.19331 0.5949,-0.31541 0.98953,-0.35116 1.70268,-0.15425 0.51056,0.14098 1.38248,0.18369 1.9376,0.0949 0.61067,-0.0977 1.0093,-0.0557 1.0093,0.10632 0,0.15023 -0.68335,0.26771 -1.55726,0.26771 -0.87026,0 -1.89158,0.17495 -2.3151,0.39658 -0.97656,0.51104 -4.79264,0.49278 -5.79592,-0.0277 z m 2.52453,-2.48552 c 0,-0.14552 0.29765,-0.26458 0.66146,-0.26458 0.3638,0 0.66145,0.11906 0.66145,0.26458 0,0.14552 -0.29765,0.26459 -0.66145,0.26459 -0.36381,0 -0.66146,-0.11907 -0.66146,-0.26459 z m -0.41618,-1.5254 c -0.54469,-0.37298 -0.63674,-1.14732 -0.2132,-1.79371 0.23264,-0.35505 0.35743,-0.81636 0.27732,-1.02512 -0.0801,-0.20877 0.0259,-0.52192 0.23549,-0.6959 0.31797,-0.26389 0.38115,-0.17938 0.38115,0.50982 0,0.45438 -0.11906,0.82615 -0.26458,0.82615 -0.42808,0 -0.30284,1.37127 0.1733,1.89739 0.34707,0.38351 0.36078,0.48302 0.0661,0.47981 -0.20445,-0.002 -0.49948,-0.0915 -0.65562,-0.19844 z m -4.275762,-4.0219 c -0.629721,-0.58667 -1.010248,-1.54589 -0.719954,-1.81482 0.10597,-0.0982 0.253492,-0.007 0.327827,0.20334 0.07434,0.21001 0.415223,0.66191 0.757528,1.00421 1.037663,1.03767 0.699612,1.59948 -0.365401,0.60727 z m 9.189852,0.011 c 0,-0.12538 0.17297,-0.29434 0.38437,-0.37546 0.21141,-0.0811 0.6012,-0.59988 0.86621,-1.15279 0.45876,-0.95714 0.45997,-1.04965 0.0252,-1.93133 -0.56559,-1.14703 -0.58362,-1.34529 -0.10563,-1.16187 1.10838,0.42533 1.13721,3.137 0.0448,4.21392 -0.4138,0.40793 -1.21499,0.67667 -1.21499,0.40753 z m -7.26128,-1.05446 c -0.433725,-0.70178 0.92565,-1.70284 1.51375,-1.11474 0.2031,0.2031 0.14583,0.43796 -0.19993,0.82003 -0.5142,0.56818 -1.06803,0.69242 -1.31382,0.29471 z m 5.43679,-0.2658 c -0.3928,-0.24873 -0.2239,-1.08099 0.21938,-1.08099 0.33875,0 0.84545,0.93606 0.62567,1.15584 -0.22168,0.22168 -0.40195,0.20571 -0.84505,-0.0748 z m -8.221258,-1.92527 c 0.0094,-0.6838 0.686575,-1.72392 0.950507,-1.45999 0.19426,0.19426 -0.379568,1.71286 -0.728789,1.92869 -0.126573,0.0782 -0.226346,-0.13269 -0.221718,-0.4687 z m 18.247838,-11.59663 c -0.65485,-0.11821 -1.41185,-0.15323 -1.68222,-0.0778 -0.46561,0.12986 -2.81162,-0.88122 -2.81931,-1.21506 -0.002,-0.0863 -0.0717,-0.41042 -0.15484,-0.72035 -0.13335,-0.49691 0.0137,-0.60308 1.24413,-0.89826 0.76744,-0.1841 1.76242,-0.55132 2.21107,-0.81602 1.10352,-0.6511 4.60305,-1.25403 4.86052,-0.83743 0.10372,0.16783 0.57627,0.29412 1.0501,0.28064 0.47383,-0.0135 1.48328,0.16954 2.24322,0.4067 0.75994,0.23715 1.83558,0.50027 2.39032,0.58471 0.84495,0.12861 0.99521,0.24589 0.92604,0.72278 -0.0635,0.43789 -0.41263,0.66451 -1.51283,0.98199 -0.9479,0.27354 -1.4919,0.5885 -1.61307,0.9339 -0.15663,0.44652 -0.44446,0.52515 -2.00933,0.54894 -1.00458,0.0153 -2.30276,0.0936 -2.88484,0.17398 -0.58209,0.0804 -1.59412,0.0495 -2.24896,-0.0687 z m 0.52916,-1.26685 c 0,-0.11771 -0.17057,-0.44513 -0.37906,-0.7276 -0.31358,-0.42488 -0.43927,-0.45339 -0.7276,-0.16505 -0.28834,0.28833 -0.25982,0.41402 0.16505,0.7276 0.57334,0.42316 0.94161,0.48772 0.94161,0.16505 z m 4.97935,-0.44381 c 0.0677,-0.0677 -0.0322,-0.31036 -0.22214,-0.53918 -0.50725,-0.6112 -1.43184,-0.38606 -1.53941,0.37485 -0.0827,0.58465 -0.0234,0.61984 0.77446,0.46026 0.47517,-0.095 0.91936,-0.2282 0.98709,-0.29593 z m -2.33351,-1.31094 c 0,-0.27926 -0.50777,-0.39658 -0.65879,-0.15222 -0.0914,0.1479 0.0194,0.2689 0.2463,0.2689 0.22687,0 0.41249,-0.0525 0.41249,-0.11668 z m 0.12099,-0.92337 c 0.2301,-0.37232 -0.31807,-0.60453 -0.95207,-0.40331 -0.44157,0.14015 -0.48352,0.22784 -0.19607,0.4099 0.47892,0.30332 0.9583,0.30057 1.14814,-0.007 z m -30.812659,3.72014 c -0.363802,-0.0996 -1.34821,-0.16286 -2.187573,-0.14063 -1.41781,0.0376 -1.898484,-0.16063 -1.909417,-0.78732 -0.0022,-0.12773 -0.658895,-0.42913 -1.45926,-0.66978 -1.070251,-0.3218 -1.475598,-0.57775 -1.532286,-0.96753 -0.06608,-0.45439 0.160379,-0.57739 1.5875,-0.86225 0.915518,-0.18274 2.024636,-0.4445 2.464708,-0.58168 2.977022,-0.92803 5.980851,-0.75796 7.743852,0.43844 0.507413,0.34434 1.198009,0.62608 1.534657,0.62608 0.659654,0 1.964837,0.51486 1.952146,0.77007 -0.02301,0.46279 -1.687812,1.90599 -2.310003,2.00253 -1.522408,0.2362 -5.251624,0.34525 -5.884324,0.17207 z m -0.529167,-1.63915 c 0,-0.15509 -0.124061,-0.51379 -0.275692,-0.79711 -0.233015,-0.4354 -0.366128,-0.46753 -0.859896,-0.20758 -0.776152,0.4086 -1.025138,0.83006 -0.636383,1.07719 0.476267,0.30277 1.771971,0.24975 1.771971,-0.0725 z m 4.493866,0.0835 c -0.0091,-0.44776 -0.485758,-0.91545 -0.760118,-0.74589 -0.489542,0.30256 -0.329833,0.94433 0.235002,0.94433 0.291042,0 0.527344,-0.0893 0.525116,-0.19844 z m -3.303241,-1.91823 c -0.128011,-0.20713 -0.280211,-0.2225 -0.4566,-0.0461 -0.145521,0.14552 -0.178176,0.40439 -0.07257,0.57527 0.128011,0.20713 0.280212,0.2225 0.456601,0.0461 0.14552,-0.14552 0.178175,-0.40439 0.07256,-0.57527 z m 1.852084,-3.20789 c -2.838492,-0.940963 -3.378307,-1.039222 -5.093229,-0.927091 -1.055026,0.06898 -1.918229,0.02619 -1.918229,-0.09509 0,-0.121282 0.618689,-0.52882 1.374866,-0.905638 1.98619,-0.98976 3.287075,-0.939655 8.151782,0.313977 2.964159,0.763863 3.132053,0.835214 3.313968,1.408382 0.504201,1.58859 -1.449112,1.65744 -5.829158,0.20546 z m 19.623267,0.91483 c -0.29865,-0.29864 -0.19512,-1.367752 0.15434,-1.593929 0.57573,-0.372622 4.49457,-1.453678 6.32393,-1.744529 1.38722,-0.220554 2.05506,-0.20019 3.15387,0.09617 1.66938,0.450249 2.05444,1.037432 0.68033,1.037432 -0.51278,0 -1.74309,0.288024 -2.73403,0.640053 -4.26624,1.515573 -7.05239,2.090863 -7.57844,1.564803 z M 75.09946,99.720608 c -0.101353,-1.100192 0.387765,-2.187972 0.854197,-1.899701 0.269073,0.166296 0.311055,1.194173 0.074,1.811916 -0.190475,0.496367 -0.884515,0.562007 -0.928202,0.08778 z m 55.32184,-1.141703 c -0.37676,-0.990942 -0.31599,-1.702568 0.14538,-1.702568 0.49339,0 0.99102,1.209927 0.77611,1.88703 -0.22028,0.694065 -0.61773,0.614506 -0.92149,-0.184462 z M 75.725241,96.421709 c -0.4442,-0.159339 -0.421915,-1.521568 0.03104,-1.897488 0.528387,-0.438522 1.030008,0.265833 0.810937,1.138683 -0.194992,0.77691 -0.364824,0.929965 -0.841977,0.758805 z m 54.286879,-1.775235 c -0.21503,-0.85676 0.0868,-1.746966 0.53414,-1.575308 0.36026,0.138244 0.6569,1.346921 0.46896,1.910759 -0.18169,0.545061 -0.83712,0.325876 -1.0031,-0.335451 z M 75.754548,92.51012 c -0.236937,-0.617448 0.13434,-1.7192 0.57935,-1.7192 0.556249,0 0.719095,0.572606 0.400878,1.409582 -0.297143,0.781545 -0.744865,0.922964 -0.980228,0.309618 z M 129.687,90.828957 c -0.14489,-0.415643 -0.16562,-0.914002 -0.0461,-1.107466 0.34313,-0.5552 1.05148,0.187063 1.05148,1.101826 0,0.999876 -0.65755,1.003564 -1.00543,0.0056 z M 76.452845,88.461468 c 0,-0.926411 0.693043,-1.680433 0.943834,-1.02688 0.266132,0.693528 0.0052,1.62676 -0.480813,1.719384 -0.356304,0.06791 -0.463021,-0.0917 -0.463021,-0.692504 z m 52.270215,-0.904419 c -0.43867,-0.62628 -0.56121,-1.793212 -0.18831,-1.793212 0.32377,0 1.04222,0.858726 1.10681,1.322917 0.16471,1.183573 -0.26485,1.403515 -0.9185,0.470295 z M 77.775761,85.545374 c 0,-0.52988 1.039411,-1.63362 1.538407,-1.63362 0.465658,0 0.381817,0.484075 -0.233507,1.348218 -0.615765,0.864763 -1.3049,1.015487 -1.3049,0.285402 z m 24.711389,-1.241056 c -0.30037,-0.458421 -0.37688,-0.932901 -0.25511,-1.582022 0.2182,-1.163088 0.89491,-1.237423 1.11783,-0.122792 0.1251,0.625474 0.28403,0.78733 0.71447,0.727604 0.95702,-0.132791 0.80583,0.700242 -0.21548,1.187271 -0.92095,0.439169 -0.93805,0.436531 -1.36171,-0.210061 z m 23.88066,-0.08267 c -0.50533,-0.558382 -0.55939,-0.99732 -0.15371,-1.248042 0.33677,-0.20814 1.56791,0.876343 1.56791,1.381142 0,0.513328 -0.90639,0.428021 -1.4142,-0.1331 z M 99.934615,83.808025 c -0.645488,-0.489996 -0.577561,-0.954605 0.139565,-0.954605 0.73105,0 1.8466,0.734362 1.63518,1.076437 -0.22055,0.35687 -1.23596,0.287165 -1.774745,-0.121832 z M 80.569207,83.177421 c -0.358888,-0.358888 -0.08453,-0.872201 0.676539,-1.265763 1.047612,-0.541742 1.630956,-0.135336 0.92517,0.64455 -0.484441,0.535301 -1.351383,0.871539 -1.601709,0.621213 z m 25.900183,-0.08152 c -0.27297,-0.44168 0.60012,-1.036233 1.52168,-1.036233 0.67919,0 0.71606,0.04702 0.41496,0.529167 -0.18176,0.291042 -0.47069,0.529167 -0.64207,0.529167 -0.17137,0 -0.48787,0.06765 -0.70334,0.150329 -0.21546,0.08268 -0.48151,0.0051 -0.59123,-0.17243 z M 96.36274,82.580592 c -0.690806,-0.27767 -0.776747,-0.73249 -0.181565,-0.960883 0.566299,-0.217309 1.702919,0.337454 1.702919,0.831164 0,0.444888 -0.608232,0.496749 -1.521354,0.129719 z m 26.59063,-0.431134 c -1.30819,-0.689049 -0.74321,-1.368948 0.73277,-0.881831 0.62671,0.206832 0.92087,0.466397 0.92087,0.812562 0,0.600511 -0.59754,0.625541 -1.65364,0.06927 z M 92.989303,81.850076 c -1.248324,-0.264051 -1.454751,-1.113322 -0.270608,-1.113322 0.879703,0 1.461233,0.263241 1.461233,0.661458 0,0.417025 -0.48505,0.60111 -1.190625,0.451864 z m 17.206577,-0.04098 c -0.1886,-0.30516 0.89888,-0.807761 1.74776,-0.807761 0.36308,0 0.50355,0.146628 0.44359,0.463021 -0.10047,0.530176 -1.90162,0.81353 -2.19135,0.34474 z M 84.002129,81.279931 c -0.188599,-0.30516 0.898882,-0.807761 1.747757,-0.807761 0.363079,0 0.503555,0.146628 0.443596,0.463021 -0.100473,0.530176 -1.901625,0.81353 -2.191353,0.34474 z m 30.286131,-0.122399 c 0,-0.513087 0.36307,-0.716032 1.33017,-0.743529 0.95386,-0.02712 1.22764,0.188085 0.83742,0.658264 -0.42424,0.511185 -2.16759,0.579762 -2.16759,0.08526 z m 4.81303,0.14816 c -0.91799,-0.258545 -0.82721,-0.69017 0.16519,-0.785429 0.89839,-0.08623 1.74501,0.355807 1.48554,0.775636 -0.16247,0.262891 -0.73992,0.266317 -1.65073,0.0098 z M 88.11406,80.8926 c -0.442634,-0.533341 0.0682,-0.777079 1.188244,-0.566957 1.222218,0.229289 1.233734,0.940277 0.01523,0.940277 -0.491505,0 -1.033067,-0.167994 -1.203474,-0.37332 z m 14.16198,-0.998162 c -0.19241,-0.944315 -0.10292,-1.503689 0.26302,-1.644113 0.50358,-0.193243 0.95022,0.509296 0.85426,1.343687 -0.10921,0.949508 -0.93954,1.172775 -1.11728,0.300426 z m 0.0758,-3.17318 c -0.4026,-1.141644 0.30093,-2.627965 0.84648,-1.788325 0.38442,0.591647 0.1677,1.687261 -0.35329,1.786063 -0.25466,0.04829 -0.47659,0.04931 -0.49319,0.0023 z m 0.0831,-3.710338 c -0.44711,-0.447105 -0.39455,-1.405843 0.0995,-1.815902 0.34562,-0.286843 0.4582,-0.281063 0.65741,0.03375 0.28067,0.443566 0.31449,1.090565 0.0879,1.681139 -0.19216,0.500745 -0.41808,0.527758 -0.84482,0.101014 z m 0,-3.704167 c -0.58114,-0.581137 -0.22159,-2.06375 0.50048,-2.06375 0.28743,0 0.54355,1.313605 0.3655,1.874585 -0.18575,0.585249 -0.41896,0.636191 -0.86598,0.189165 z m -0.18521,-3.915833 c -0.22665,-0.714114 0.0789,-1.5875 0.5553,-1.5875 0.5065,0 0.73402,0.629074 0.52653,1.4558 -0.19885,0.792278 -0.84712,0.871198 -1.08183,0.1317 z m 0.18521,-3.227917 c -0.44711,-0.447105 -0.39455,-1.405843 0.0995,-1.815902 0.34562,-0.286842 0.4582,-0.281063 0.65741,0.03375 0.28067,0.443566 0.31449,1.090565 0.0879,1.681139 -0.19216,0.500746 -0.41808,0.527759 -0.84482,0.101014 z M 73.228898,118.46519 c 0.395995,-0.20478 0.930556,-0.85214 1.190881,-1.44218 0.437922,-0.99257 0.44347,-1.21141 0.0761,-3.00188 -0.539769,-2.63072 -0.953455,-6.90626 -0.953455,-9.85418 0,-2.25626 -0.05559,-2.51612 -0.727604,-3.40127 -0.400182,-0.5271 -1.127661,-1.153393 -1.616621,-1.391755 -1.564527,-0.762689 -4.036658,0.269283 -4.970343,2.074835 -0.741399,1.4337 -0.313274,4.07626 1.145303,7.06924 1.533745,3.14723 2.195899,5.28687 2.198494,7.10407 0.0018,1.25573 0.103569,1.51706 0.901605,2.3151 0.976417,0.97642 1.641931,1.10394 2.755636,0.52802 z m -1.715511,-4.20211 c -0.120954,-0.20356 -0.547339,-0.58114 -0.947521,-0.83907 -0.615719,-0.39684 -0.727604,-0.65125 -0.727604,-1.65447 0,-0.65203 -0.196425,-1.51804 -0.4365,-1.92445 -0.576486,-0.97591 -0.352546,-1.4485 1.099935,-2.32122 1.207714,-0.72566 1.207714,-0.72566 1.132035,-2.17855 -0.06848,-1.31477 -0.149699,-1.48825 -0.854295,-1.82482 -1.144446,-0.54669 -2.1318,0.0479 -2.1318,1.28375 0,0.94426 -0.556903,1.39409 -0.952591,0.76944 -0.39234,-0.61936 -0.26183,-1.71657 0.287206,-2.41456 1.05633,-1.3429 3.851403,-0.97393 4.500929,0.59417 0.466387,1.12595 0.196442,3.87646 -0.540485,5.50707 -0.632545,1.39965 -0.632995,1.40753 -0.150869,2.64584 0.265962,0.6831 0.500759,1.52804 0.521771,1.87763 0.04358,0.72514 -0.470988,1.03332 -0.800211,0.47924 z m -0.749084,-5.21591 c 0.08994,-0.14552 -0.0221,-0.26458 -0.248968,-0.26458 -0.22687,0 -0.41249,0.11906 -0.41249,0.26458 0,0.14552 0.112036,0.26458 0.248968,0.26458 0.136933,0 0.322553,-0.11906 0.41249,-0.26458 z m 64.827497,8.99106 c 0.64399,-0.67219 0.79458,-1.10127 0.9518,-2.71198 0.21573,-2.21009 0.68896,-3.71227 2.0541,-6.52031 1.26046,-2.59272 1.61973,-3.84728 1.61973,-5.65615 0,-1.21256 -0.12565,-1.61968 -0.71666,-2.32205 -0.73227,-0.870249 -2.46624,-1.818494 -3.3444,-1.828925 -0.87604,-0.01041 -2.16893,0.777924 -2.67171,1.629055 -0.40362,0.68327 -0.52712,1.66695 -0.68876,5.48582 -0.10833,2.5593 -0.40289,5.72483 -0.65458,7.03452 -0.73993,3.85033 -0.56986,4.78718 0.98204,5.40963 1.07019,0.42924 1.68296,0.30025 2.46844,-0.51961 z m -1.98896,-4.06263 c 0,-0.19979 0.24909,-0.92635 0.55353,-1.61459 0.60343,-1.36414 0.55049,-2.34602 -0.20851,-3.86748 -0.99818,-2.00088 -0.91117,-4.43645 0.19811,-5.54573 0.38111,-0.38112 0.87674,-0.51416 1.90427,-0.51116 0.76398,0.002 1.52007,0.0915 1.68018,0.19844 0.86419,0.57703 1.20401,2.655 0.52619,3.21754 -0.48136,0.39949 -0.81041,-0.0765 -0.7352,-1.06361 0.0669,-0.8778 -0.52107,-1.38494 -1.57103,-1.35509 -1.0384,0.0295 -1.53478,0.69849 -1.54537,2.0827 -0.008,1.02006 0.0873,1.16846 1.3145,2.05008 1.39042,0.99892 1.55242,1.44307 0.92604,2.5388 -0.20797,0.36381 -0.38234,1.08519 -0.3875,1.60308 -0.0102,1.02095 -0.31126,1.51967 -1.32501,2.19467 -0.79695,0.53064 -1.3302,0.55964 -1.3302,0.0723 z m 2.38125,-4.92843 c 0,-0.14552 -0.11906,-0.26458 -0.26458,-0.26458 -0.14552,0 -0.26458,0.11906 -0.26458,0.26458 0,0.14552 0.11906,0.26458 0.26458,0.26458 0.14552,0 0.26458,-0.11906 0.26458,-0.26458 z"
       id="path1" /></g></svg>
