<svg xmlns="http://www.w3.org/2000/svg" viewBox="0 0 400 500" width="400" height="500" fill="none">
  <g stroke="#555" stroke-width="2.5" stroke-linecap="round" stroke-linejoin="round">
    <!-- Skull dome and face outline -->
    <path d="M200 48c-38 0-72 15-96 40-24 25-38 60-38 98 0 34 9 64 24 90 14 25 32 46 42 72 7 19 9 44 9 70h118c0-26 2-51 9-70 10-26 28-47 42-72 15-26 24-56 24-90 0-38-14-73-38-98-24-25-58-40-96-40Z"/>
    <!-- Left ear -->
    <path d="M66 192c-8 4-14 12-14 22 0 11 6 20 16 26 4 2 8 4 12 4"/>
    <!-- Right ear -->
    <path d="M334 192c8 4 14 12 14 22 0 11-6 20-16 26-4 2-8 4-12 4"/>
    <!-- Neck and shoulders -->
    <path d="M168 418v38"/>
    <path d="M232 418v38"/>
    <path d="M140 456c9 4 18 6 28 6h64c10 0 19-2 28-6"/>
    <!-- Hairline (dashed) -->
    <path d="M148 106c14-14 32-22 52-22s38 8 52 22" stroke-dasharray="5 6"/>
    <!-- Brow line (dashed) -->
    <path d="M138 196c16-8 38-13 62-13s46 5 62 13" stroke-dasharray="6 6"/>
    <!-- Nose bridge and tip -->
    <path d="M200 212v52"/>
    <path d="M185 264c5 4 10 6 15 6s10-2 15-6" stroke-dasharray="4 5"/>
    <!-- Lip indication (dashed) -->
    <path d="M176 348c8 6 16 9 24 9s16-3 24-9" stroke-dasharray="4 5"/>
    <!-- Chin curve -->
    <path d="M163 390c11 7 24 11 37 11s26-4 37-11"/>
  </g>
</svg>
