<?xml version="1.0" encoding="UTF-8" standalone="no"?>
<!-- Created with Inkscape (http://www.inkscape.org/) -->

<svg
   width="81.682076mm"
   height="117.21044mm"
   viewBox="0 0 81.682076 117.21044"
   version="1.1"
   id="svg1"
   xml:space="preserve"
   inkscape:version="1.4.4 (dcaf3e7, 2026-05-05)"
   sodipodi:docname="head-side.svg"
   xmlns:inkscape="http://www.inkscape.org/namespaces/inkscape"
   xmlns:sodipodi="http://sodipodi.sourceforge.net/DTD/sodipodi-0.dtd"
   xmlns="http://www.w3.org/2000/svg"
   xmlns:svg="http://www.w3.org/2000/svg"><sodipodi:namedview
     id="namedview1"
     pagecolor="#ffffff"
     bordercolor="#000000"
     borderopacity="0.25"
     inkscape:showpageshadow="2"
     inkscape:pageopacity="0.0"
     inkscape:pagecheckerboard="0"
     inkscape:deskcolor="#d1d1d1"
     inkscape:document-units="mm"
     inkscape:zoom="0.71891835"
     inkscape:cx="169.00389"
     inkscape:cy="-71.635395"
     inkscape:window-width="1920"
     inkscape:window-height="1009"
     inkscape:window-x="-8"
     inkscape:window-y="-8"
     inkscape:window-maximized="1"
     inkscape:current-layer="layer1" /><defs
     id="defs1" /><g
     inkscape:label="Layer 1"
     inkscape:groupmode="layer"
     id="layer1"
     transform="translate(-60.283993,-167.59278)"><path
       style="fill:#000000"
       d="m 86.13898,284.42194 c 0,-0.20969 0.128917,-0.46093 0.286481,-0.55831 0.157564,-0.0974 0.514751,-0.70959 0.79375,-1.36047 0.278998,-0.65088 0.50727,-1.42414 0.50727,-1.71836 0,-0.29423 0.288569,-1.10949 0.641264,-1.81169 0.352696,-0.7022 1.298201,-2.14955 2.101124,-3.21632 0.906118,-1.20389 1.563662,-2.39012 1.733518,-3.12733 0.150512,-0.65324 0.276568,-2.1635 0.280126,-3.35612 0.0036,-1.19262 -0.111297,-3.69293 -0.255232,-5.55625 -0.143935,-1.86332 -0.393623,-4.638 -0.554861,-6.16597 -0.161239,-1.52797 -0.533978,-3.57444 -0.82831,-4.5477 -0.294332,-0.97327 -0.815684,-2.03313 -1.158561,-2.35524 -0.623412,-0.58567 -0.623412,-0.58567 -4.00322,0.51001 -1.858894,0.60263 -4.213245,1.2858 -5.23189,1.51817 -1.151746,0.26272 -2.668951,0.38884 -4.012336,0.33351 -1.902911,-0.0784 -2.296893,-0.18492 -3.307291,-0.89446 -0.630872,-0.44302 -1.444697,-1.33599 -1.808499,-1.98438 -0.608285,-1.0841 -0.655973,-1.4097 -0.593226,-4.05025 0.06823,-2.87137 0.06823,-2.87137 -1.123614,-4.04636 -0.655515,-0.64624 -1.389188,-1.5566 -1.630384,-2.02302 -0.241196,-0.46643 -0.420356,-1.31206 -0.398134,-1.87918 0.02222,-0.56713 0.15695,-1.17157 0.299394,-1.34321 0.182825,-0.22029 -0.04586,-0.53964 -0.777614,-1.08591 -0.570131,-0.42562 -1.162749,-1.04735 -1.316929,-1.38162 -0.154179,-0.33427 -0.280326,-0.90456 -0.280326,-1.26731 0,-0.36276 0.238125,-1.12632 0.529166,-1.6968 0.291042,-0.57049 0.529167,-1.50851 0.529167,-2.08449 0,-0.57598 -0.07261,-1.23646 -0.161363,-1.46774 -0.08875,-0.23128 -1.155748,-0.96255 -2.371108,-1.62504 -1.215359,-0.66249 -2.507227,-1.55807 -2.870817,-1.99017 -0.36359,-0.4321 -0.73568,-1.18333 -0.826867,-1.6694 -0.119303,-0.63594 -0.01007,-1.17166 0.389548,-1.91044 0.305438,-0.56468 1.511559,-2.3959 2.680268,-4.06939 1.168709,-1.67349 2.795632,-4.15468 3.615384,-5.51375 1.381703,-2.29074 1.486999,-2.58033 1.443043,-3.96875 -0.02608,-0.82374 -0.290362,-2.62881 -0.587296,-4.01125 -0.296934,-1.38245 -0.667896,-3.23651 -0.82436,-4.12014 -0.226262,-1.2778 -0.196187,-2.16404 0.146962,-4.3306 0.237293,-1.4982 0.737251,-3.63274 1.111019,-4.74341 0.373767,-1.11067 1.441125,-3.57664 2.371906,-5.47993 1.590707,-3.25274 1.863492,-3.63657 4.542693,-6.3919 1.5677,-1.61225 3.62427,-3.42646 4.570155,-4.03158 0.945886,-0.60512 2.672292,-1.55148 3.836459,-2.10301 1.164166,-0.55153 3.128698,-1.36327 4.365625,-1.80386 1.236927,-0.4406 2.78474,-0.92784 3.439583,-1.08277 0.654844,-0.15492 1.785938,-0.40533 2.513542,-0.55646 0.727604,-0.15113 2.331825,-0.39532 3.564934,-0.54265 1.23311,-0.14732 3.579727,-0.26786 5.214717,-0.26786 1.63498,0 3.90029,0.12188 5.03402,0.27084 1.13373,0.14896 2.89477,0.40514 3.91341,0.56928 1.01865,0.16414 3.23021,0.74384 4.91458,1.28823 1.68437,0.54439 3.70843,1.36513 4.49792,1.82387 0.78948,0.45874 1.67355,0.97755 1.96459,1.1529 0.29104,0.17536 1.3626,0.92866 2.38125,1.67401 1.01864,0.74534 2.75946,2.30555 3.86849,3.46712 1.10902,1.16157 2.61308,2.99619 3.34235,4.07692 0.72928,1.08074 1.83303,2.97335 2.4528,4.2058 0.61976,1.23245 1.22119,2.47895 1.3365,2.76999 0.11532,0.29104 0.3531,1.00541 0.52841,1.5875 0.1753,0.58208 0.40883,1.29646 0.51895,1.5875 0.11012,0.29104 0.32724,1.18401 0.48249,1.98437 0.15524,0.80037 0.37278,1.93146 0.48341,2.51354 0.11063,0.58209 0.19871,3.85631 0.19573,7.27605 -0.003,3.41974 -0.0948,6.75349 -0.20409,7.40833 -0.10928,0.65484 -0.30209,1.60734 -0.42847,2.11667 -0.12638,0.50932 -0.37278,1.46182 -0.54754,2.11666 -0.17477,0.65485 -0.68403,2.14313 -1.13169,3.3073 -0.44766,1.16416 -1.11941,2.65244 -1.49277,3.30729 -0.37336,0.65484 -0.83638,1.49905 -1.02892,1.87601 -0.19255,0.37696 -0.68612,1.0791 -1.09683,1.56032 -0.41071,0.48121 -1.24769,1.75047 -1.85995,2.82056 -0.61226,1.0701 -1.58924,3.04686 -2.17105,4.39281 -0.58182,1.34594 -1.33868,3.54976 -1.68192,4.89736 -0.34323,1.34761 -0.74668,3.42808 -0.89655,4.62327 -0.14986,1.19519 -0.2688,3.06917 -0.26431,4.1644 0.005,1.09522 0.11659,2.82475 0.24909,3.8434 0.13251,1.01864 0.31264,2.2688 0.4003,2.77812 0.0877,0.50932 0.28119,1.40229 0.43005,1.98438 0.14887,0.58208 0.37916,1.41552 0.51176,1.85208 0.1326,0.43656 0.49725,1.56766 0.81033,2.51354 0.31309,0.94589 0.89184,2.43811 1.28612,3.31605 0.39428,0.87794 1.92271,3.39924 3.39651,5.60289 1.4738,2.20365 3.4166,4.99768 4.31734,6.20895 0.90073,1.21128 2.33345,2.99586 3.18381,3.96574 0.85036,0.96988 1.54611,1.83308 1.54611,1.91823 0,0.0851 -0.22184,0.15481 -0.49296,0.15481 -0.27113,0 -1.01929,-0.56555 -1.66257,-1.25677 -0.64328,-0.69123 -1.88408,-2.20927 -2.75733,-3.37344 -0.87325,-1.16417 -1.78584,-2.41432 -2.02798,-2.77813 -0.24213,-0.3638 -1.69653,-2.50253 -3.23199,-4.75273 -1.53547,-2.2502 -2.79176,-4.18626 -2.79176,-4.30236 0,-0.1161 -0.23256,-0.71581 -0.5168,-1.33269 -0.28424,-0.61687 -0.75604,-1.73978 -1.04844,-2.49535 -0.2924,-0.75556 -0.827,-2.51019 -1.18801,-3.89916 -0.361,-1.38898 -0.79802,-3.49416 -0.97115,-4.67818 -0.20287,-1.38746 -0.26079,-3.7637 -0.16291,-6.68417 0.0835,-2.49227 0.26583,-4.97964 0.40511,-5.52748 0.22252,-0.87528 0.18518,-1.04375 -0.30782,-1.38907 -0.30858,-0.21613 -0.77269,-0.39297 -1.03135,-0.39297 -0.25866,0 -0.47029,-0.19212 -0.47029,-0.42692 0,-0.35382 0.19695,-0.39738 1.1502,-0.25443 1.1502,0.17248 1.1502,0.17248 1.87929,-2.02048 0.40099,-1.20613 1.19142,-3.16475 1.7565,-4.35249 0.56508,-1.18774 1.92841,-3.50498 3.02962,-5.14942 1.10121,-1.64444 2.45555,-3.94687 3.00964,-5.11651 0.55409,-1.16965 1.27056,-3.0196 1.59215,-4.11101 0.32159,-1.0914 0.69158,-2.40109 0.82221,-2.91041 0.13062,-0.50933 0.3802,-1.81901 0.55461,-2.91042 0.17441,-1.09141 0.30908,-4.1275 0.29928,-6.74687 -0.0118,-3.15654 -0.1622,-5.56549 -0.44596,-7.14376 -0.23547,-1.30968 -0.62016,-3.15515 -0.85487,-4.10104 -0.2347,-0.94588 -0.87423,-2.76233 -1.42116,-4.03654 -0.54693,-1.27422 -1.47716,-3.12933 -2.06718,-4.12248 -0.59001,-0.99314 -1.85407,-2.77343 -2.80902,-3.9562 -0.95495,-1.18276 -2.56356,-2.86251 -3.5747,-3.73277 -1.01114,-0.87026 -2.70701,-2.159 -3.76859,-2.86385 -1.06158,-0.70486 -2.46593,-1.53369 -3.12077,-1.84186 -0.65485,-0.30816 -1.84547,-0.80538 -2.64584,-1.10493 -0.80036,-0.29955 -2.16958,-0.72185 -3.04271,-0.93846 -0.87312,-0.2166 -2.74999,-0.57915 -4.17082,-0.80566 -1.53952,-0.24543 -4.31905,-0.41543 -6.87916,-0.42073 -2.36272,-0.005 -5.220265,0.12121 -6.350105,0.28023 -1.12984,0.15901 -2.796715,0.45144 -3.704167,0.64984 -0.907452,0.19839 -2.304756,0.55438 -3.105121,0.79108 -0.800364,0.23669 -1.693333,0.53191 -1.984375,0.65603 -0.291041,0.12413 -1.005417,0.42966 -1.5875,0.67898 -0.582083,0.24931 -1.842059,0.83878 -2.799946,1.30993 -0.957887,0.47115 -2.5057,1.37454 -3.439584,2.00753 -0.933883,0.63299 -2.501642,1.95163 -3.483908,2.93031 -0.982265,0.97868 -1.785937,1.90049 -1.785937,2.04846 0,0.14796 0.119062,0.34261 0.264583,0.43255 0.145521,0.0899 0.264583,0.27556 0.264583,0.41249 0,0.13693 -0.344775,0.24897 -0.766168,0.24897 -0.625583,0 -0.912665,0.23061 -1.564552,1.25677 -0.439111,0.69122 -1.036652,1.73302 -1.327869,2.3151 -0.291217,0.58209 -0.794391,1.65365 -1.118164,2.38125 -0.323772,0.72761 -0.814278,1.97776 -1.090012,2.77813 -0.275734,0.80036 -0.66646,2.16958 -0.86828,3.04271 -0.20182,0.87312 -0.443145,2.42094 -0.536278,3.43958 -0.09313,1.01865 -0.05141,2.38787 0.09273,3.04271 0.144134,0.65484 0.45309,2.02406 0.68657,3.04271 0.233479,1.01864 0.495779,2.80719 0.582889,3.97454 0.146327,1.96092 0.102547,2.23278 -0.575198,3.57188 -0.403469,0.79718 -1.730952,2.93769 -2.949963,4.7567 -1.219011,1.81901 -2.750137,4.06478 -3.402502,4.99059 -0.652365,0.92581 -1.186119,1.91399 -1.186119,2.19595 0,0.28196 0.178749,0.85832 0.39722,1.2808 0.22679,0.43856 1.084281,1.17081 1.99855,1.70665 0.880732,0.51618 1.705537,0.93851 1.8329,0.93851 0.127363,0 0.656766,0.40102 1.17645,0.89114 0.846426,0.79828 0.94488,1.03351 0.94488,2.25746 0,0.75147 -0.178593,1.79375 -0.396875,2.31617 -0.218281,0.52242 -0.396875,0.99485 -0.396875,1.04984 0,0.055 0.168183,0.1 0.373739,0.1 0.205556,0 1.086192,0.59531 1.95697,1.32292 1.13262,0.94639 1.810803,1.32291 2.382807,1.32291 0.622431,0 0.921593,0.19743 1.350322,0.89113 0.30291,0.49012 0.550746,0.96637 0.550746,1.05833 0,0.092 -0.353219,0.16721 -0.784931,0.16721 -0.545696,0 -1.069861,0.28493 -1.719791,0.93486 -0.514174,0.51417 -0.934861,1.04995 -0.934861,1.19063 0,0.14067 -0.105177,0.25576 -0.233725,0.25576 -0.128549,0 -0.295996,-0.23813 -0.372105,-0.52917 -0.07611,-0.29104 -0.268589,-0.52916 -0.427734,-0.52916 -0.159144,0 -0.289353,0.22612 -0.289353,0.50248 0,0.27637 0.715338,1.29184 1.58964,2.2566 1.589641,1.7541 1.589641,1.7541 1.521355,4.72303 -0.06402,2.78323 -0.02759,3.02685 0.582344,3.89497 0.357848,0.50932 0.889379,1.10464 1.181181,1.32292 0.291803,0.21828 0.891987,0.53664 1.333744,0.70747 0.441757,0.17083 1.338976,0.31857 1.993819,0.32832 0.654844,0.01 2.321719,-0.27352 3.704167,-0.62947 1.382448,-0.35595 3.704167,-1.05853 5.159375,-1.5613 1.455209,-0.50277 3.538803,-1.23828 4.630209,-1.63446 1.091406,-0.39619 2.103438,-0.81295 2.248958,-0.92615 0.145521,-0.1132 0.711068,-0.28925 1.256771,-0.39122 0.817778,-0.15283 0.992188,-0.10933 0.992188,0.24745 0,0.23808 -0.327422,0.5629 -0.727604,0.72182 -0.400183,0.15892 -1.299645,0.49585 -1.998806,0.74872 -0.699161,0.25287 -1.39126,0.57982 -1.537997,0.72656 -0.179338,0.17933 -0.04465,0.59414 0.410881,1.2654 0.372722,0.54924 0.803411,1.46556 0.957087,2.03627 0.153675,0.5707 0.44089,2.37007 0.638254,3.9986 0.197364,1.62852 0.506876,5.04454 0.687805,7.59115 0.194354,2.73558 0.247853,5.58454 0.130742,6.96245 -0.197484,2.32359 -0.203985,2.33988 -1.753852,4.39671 -0.855598,1.13547 -1.856299,2.6631 -2.22378,3.39473 -0.367481,0.73164 -0.668241,1.55109 -0.668356,1.821 -1.15e-4,0.26991 -0.352246,1.23488 -0.782515,2.14439 -0.583482,1.23337 -0.91965,1.65364 -1.322708,1.65364 -0.297221,0 -0.540402,-0.17157 -0.540403,-0.38126 z M 70.269286,237.83326 c 0.184076,-0.22179 0.261063,-0.47689 0.171083,-0.56687 -0.08998,-0.09 -0.345072,-0.013 -0.56687,0.17109 -0.221798,0.18407 -0.403269,0.43916 -0.403269,0.56687 0,0.1277 0.104484,0.23218 0.232186,0.23218 0.127703,0 0.382794,-0.18147 0.56687,-0.40327 z m -0.0053,-2.51911 c -0.363802,-0.28793 -1.079702,-0.8623 -1.590889,-1.27636 -0.511187,-0.41407 -1.195796,-0.83739 -1.521354,-0.94071 -0.469584,-0.14904 -0.591924,-0.085 -0.591924,0.30962 0,0.27362 0.347582,0.8305 0.772405,1.23751 0.424822,0.407 1.168963,0.83381 1.653646,0.94846 0.484682,0.11464 1.119366,0.21667 1.410408,0.22673 0.480949,0.0166 0.468895,-0.0294 -0.132292,-0.50525 z m 50.932294,1.59947 c -0.0899,-0.14553 -0.39462,-0.26459 -0.67707,-0.26459 -0.28245,0 -0.51355,-0.11203 -0.51355,-0.24897 0,-0.13693 0.12197,-0.32434 0.27104,-0.41648 0.14907,-0.0921 0.62532,-0.0897 1.05833,0.005 0.54003,0.11861 0.7873,0.33252 0.7873,0.68107 0,0.27948 -0.17157,0.50814 -0.38126,0.50814 -0.2097,0 -0.45485,-0.11906 -0.54479,-0.26458 z m -4.10104,-1.12824 c -0.3638,-0.16427 -0.71754,-0.34128 -0.78608,-0.39335 -0.0686,-0.0521 0.0495,-0.20232 0.26238,-0.33388 0.21286,-0.13155 0.68566,-0.16627 1.05067,-0.0772 0.36501,0.0891 0.75113,0.29252 0.85804,0.45202 0.10692,0.15949 0.19621,0.37928 0.19844,0.48842 0.002,0.10915 -0.20431,0.19038 -0.45897,0.18054 -0.25466,-0.01 -0.76068,-0.15231 -1.12448,-0.31658 z m -2.49164,-1.42365 c -0.0848,-0.221 -0.15419,-0.6827 -0.15419,-1.02601 0,-0.34332 0.13237,-0.70602 0.29416,-0.80601 0.16179,-0.1 0.3981,-0.0177 0.52512,0.18282 0.12702,0.20055 0.23277,0.67931 0.235,1.06392 0.002,0.38462 -0.16469,0.76405 -0.37093,0.84319 -0.20623,0.0791 -0.44436,-0.0369 -0.52916,-0.25791 z m -0.0499,-3.64347 c -0.079,-0.20599 -0.10508,-0.68594 -0.0578,-1.06656 0.0472,-0.38062 0.20494,-0.7181 0.35046,-0.74996 0.14553,-0.0319 0.3012,0.4481 0.34595,1.06656 0.0495,0.68427 -0.0314,1.12448 -0.20675,1.12448 -0.15845,0 -0.35277,-0.16853 -0.43181,-0.37452 z m -10.53264,-3.113 c -0.39211,-0.55982 -0.42014,-0.5627 -0.93553,-0.0963 -0.49511,0.44807 -0.54309,0.45012 -0.70427,0.0301 -0.0951,-0.24791 -0.018,-0.74036 0.17148,-1.09435 0.21195,-0.39602 0.57909,-0.64361 0.95441,-0.64361 0.41012,0 0.74442,0.26005 1.02041,0.79375 0.31464,0.60845 0.59178,0.79375 1.18712,0.79375 0.44459,0 0.99472,-0.23408 1.28671,-0.54749 0.28054,-0.30112 0.59617,-0.9262 0.70141,-1.38906 0.10524,-0.46287 0.28454,-1.73454 0.39845,-2.82595 0.1139,-1.0914 0.33868,-2.43086 0.49952,-2.97656 0.16083,-0.5457 0.41819,-1.43867 0.57192,-1.98438 0.15373,-0.5457 0.40656,-1.4089 0.56185,-1.91822 0.15529,-0.50933 0.33847,-1.55591 0.40706,-2.32574 0.086,-0.96488 -0.009,-1.68144 -0.30568,-2.30668 -0.2595,-0.54685 -0.80033,-1.08254 -1.36204,-1.34909 -0.51239,-0.24315 -1.57203,-0.45134 -2.35475,-0.46266 -1.03822,-0.015 -1.57049,0.1128 -1.968,0.47254 -0.29969,0.27121 -0.86306,1.04117 -1.25195,1.71102 -0.38888,0.66984 -0.83543,1.30224 -0.99233,1.40532 -0.15691,0.10308 -0.3783,0.0944 -0.492,-0.0193 -0.1137,-0.1137 -0.0298,-0.63015 0.18643,-1.14767 0.21623,-0.51752 0.70024,-1.3059 1.07558,-1.75196 0.37533,-0.44606 1.10121,-1.06984 1.61306,-1.38618 0.861,-0.53213 1.04906,-0.55186 2.51353,-0.26375 0.8706,0.17128 1.99895,0.55689 2.50745,0.85692 0.5085,0.30002 1.09879,0.88244 1.31175,1.29426 0.22988,0.44454 0.38721,1.48887 0.38721,2.5703 0,1.08766 -0.21472,2.50535 -0.53295,3.51887 -0.29311,0.93353 -0.64087,2.11406 -0.7728,2.62338 -0.13192,0.50932 -0.36835,1.41611 -0.52539,2.01507 -0.15704,0.59897 -0.28553,1.74529 -0.28553,2.54738 0,0.80209 -0.18134,1.89235 -0.40298,2.4228 -0.22163,0.53045 -0.63835,1.19983 -0.92604,1.48752 -0.37995,0.37995 -0.88093,0.52307 -1.83098,0.52307 -1.04419,0 -1.38942,-0.11637 -1.71213,-0.57711 z m 10.42838,-1.27498 c 0,-0.76435 0.11024,-1.05833 0.39687,-1.05833 0.28664,0 0.39688,0.29398 0.39688,1.05833 0,0.76435 -0.11024,1.05833 -0.39688,1.05833 -0.28663,0 -0.39687,-0.29398 -0.39687,-1.05833 z m -44.194769,-0.51177 c 0.150641,-0.28148 0.273892,-0.99585 0.273892,-1.5875 0,-0.59165 0.119063,-1.07573 0.264584,-1.07573 0.14552,0 0.264583,0.5715 0.264583,1.27 0,0.6985 -0.142875,1.41288 -0.3175,1.5875 -0.174625,0.17463 -0.416939,0.3175 -0.538476,0.3175 -0.121536,0 -0.09772,-0.2303 0.05292,-0.51177 z m -4.554754,-1.09692 c -0.254661,-0.14833 -0.463021,-0.44236 -0.463021,-0.65341 0,-0.21105 0.148828,-0.37995 0.33073,-0.37532 0.181901,0.005 0.539088,0.16658 0.79375,0.3599 0.254661,0.19332 0.46302,0.48719 0.46302,0.65304 0,0.16586 -0.148828,0.29794 -0.330729,0.29352 -0.181901,-0.004 -0.539088,-0.1294 -0.79375,-0.27773 z m 48.484903,-1.96318 c 0,-0.77648 0.0904,-0.94744 0.46302,-0.87568 0.31713,0.0611 0.46302,0.33698 0.46302,0.87568 0,0.53869 -0.14589,0.81459 -0.46302,0.87567 -0.37263,0.0718 -0.46302,-0.0992 -0.46302,-0.87567 z m -7.56156,-0.4883 c -0.0877,-0.22858 -0.099,-1.10519 -0.0252,-1.94803 0.0739,-0.84283 0.21728,-1.91938 0.31868,-2.39232 0.11887,-0.55451 0.0825,-0.8599 -0.10235,-0.8599 -0.15768,0 -0.55077,0.35719 -0.87353,0.79375 -0.32277,0.43657 -0.68352,0.79375 -0.80167,0.79375 -0.11816,0 -0.21483,-0.28707 -0.21483,-0.63793 0,-0.39005 0.32215,-0.90902 0.82903,-1.33553 0.45597,-0.38367 1.02151,-0.659 1.25677,-0.61184 0.26525,0.0532 0.55338,-0.20486 0.75847,-0.67923 0.1819,-0.42073 0.33073,-1.05315 0.33073,-1.40536 0,-0.35221 -0.19229,-0.93386 -0.42731,-1.29254 -0.24198,-0.36932 -0.6823,-0.65215 -1.01529,-0.65215 -0.35658,0 -1.03447,0.47636 -1.72248,1.21042 -0.73089,0.77981 -1.22556,1.11936 -1.39047,0.95445 -0.16491,-0.16491 -0.14583,-0.46178 0.0536,-0.83448 0.17028,-0.31817 0.50874,-0.81658 0.75212,-1.10757 0.24338,-0.29099 0.76402,-0.6983 1.15697,-0.90512 0.39296,-0.20682 0.96766,-0.37603 1.27713,-0.37603 0.30946,0 0.91068,0.34803 1.33605,0.77339 0.66833,0.66834 0.7734,0.97217 0.7734,2.23651 0,0.80472 -0.10811,1.73661 -0.24025,2.07088 -0.13214,0.33427 -0.50167,1.48366 -0.82118,2.55421 -0.33055,1.10756 -0.51693,2.26645 -0.43244,2.68891 0.0956,0.4782 0.0123,0.85543 -0.23402,1.0599 -0.30396,0.25227 -0.41527,0.23211 -0.542,-0.0981 z m 7.41599,-2.38083 c -0.097,-0.38651 -0.10045,-1.00527 -0.008,-1.37503 0.0928,-0.36975 0.27514,-0.60651 0.4052,-0.52613 0.13006,0.0804 0.31751,0.51513 0.41656,0.96611 0.1269,0.57773 0.0593,0.94077 -0.22882,1.22888 -0.36883,0.36884 -0.4262,0.34004 -0.58529,-0.29383 z m -0.18516,-3.44965 c -0.25466,-0.25624 -0.46302,-0.74802 -0.46302,-1.09284 0,-0.34482 0.11308,-0.69684 0.2513,-0.78226 0.13822,-0.0854 0.38369,0.092 0.54548,0.39434 0.1618,0.30232 0.25707,0.86399 0.21171,1.24816 -0.0787,0.6664 -0.10374,0.67709 -0.54547,0.2326 z m -14.628573,-2.29691 c -0.08777,-0.14201 -0.02281,-0.67259 0.144338,-1.17907 0.167153,-0.50648 0.406716,-0.92087 0.532363,-0.92087 0.125652,0 0.303832,0.12197 0.395962,0.27104 0.0921,0.14907 0.0919,0.61537 -5.5e-4,1.03623 -0.0924,0.42085 -0.335573,0.82947 -0.540302,0.90803 -0.204729,0.0786 -0.444043,0.0266 -0.531811,-0.11536 z m -3.098515,-0.26276 c -0.254662,-0.15179 -0.463021,-0.39597 -0.463021,-0.54262 0,-0.15008 0.491588,-0.23108 1.124479,-0.18529 0.786989,0.0569 1.124479,0.20047 1.124479,0.47823 0,0.22978 -0.2785,0.42398 -0.661458,0.46126 -0.363802,0.0354 -0.869818,-0.0598 -1.124479,-0.21158 z m -2.791355,-0.83176 c -0.174625,-0.17463 -0.3175,-0.58432 -0.3175,-0.91043 0,-0.32611 0.129437,-0.67292 0.287637,-0.7707 0.158201,-0.0978 0.394093,-0.0713 0.524206,0.0588 0.130113,0.13012 0.313215,0.61981 0.406894,1.0882 0.128076,0.64038 0.0768,0.85163 -0.206705,0.85163 -0.207368,0 -0.519907,-0.14288 -0.694532,-0.3175 z m 19.525753,-0.34526 c -0.14524,-0.38204 -0.26408,-0.92498 -0.26408,-1.20655 0,-0.28157 0.0953,-0.51194 0.21166,-0.51194 0.11642,0 0.35454,0.14287 0.52917,0.3175 0.17462,0.17462 0.3175,0.64385 0.3175,1.04272 0,0.39887 -0.11929,0.79894 -0.26508,0.88904 -0.14579,0.0901 -0.38392,-0.14874 -0.52917,-0.53077 z m -39.826458,-1.20092 c -0.09388,-0.15189 -0.05594,-0.41978 0.08429,-0.59531 0.140238,-0.17553 0.342251,-0.60324 0.448917,-0.95048 0.178428,-0.58085 0.137174,-0.61709 -0.515816,-0.4532 -0.495404,0.12434 -0.975747,0.0137 -1.590511,-0.3662 -0.484417,-0.29939 -0.952103,-0.73026 -1.039303,-0.9575 -0.0872,-0.22724 -0.158544,-0.52249 -0.158544,-0.65611 0,-0.13361 0.271164,-0.24294 0.602587,-0.24294 0.331423,0 0.867204,-0.18534 1.190625,-0.41188 0.323421,-0.22653 0.588038,-0.57669 0.588038,-0.77813 0,-0.20144 0.114783,-0.4372 0.255073,-0.5239 0.14029,-0.0867 1.182087,0.15208 2.315104,0.53063 1.133017,0.37856 2.33222,0.86475 2.664895,1.08043 0.332675,0.21568 1.285175,0.4248 2.116667,0.46471 1.149342,0.0552 1.491377,0.16321 1.426608,0.45066 -0.04686,0.20796 -0.396554,0.70553 -0.777105,1.10571 -0.540734,0.56863 -0.934924,0.7276 -1.804141,0.7276 -0.611727,0 -1.631248,0.23551 -2.265603,0.52336 -0.634355,0.28785 -1.484532,0.52597 -1.889281,0.52917 -0.405739,0.003 -0.804236,0.18387 -0.888203,0.40268 -0.08376,0.21828 -0.251593,0.39688 -0.372957,0.39688 -0.121363,0 -0.297469,-0.12428 -0.391345,-0.27618 z m 4.372788,-2.23736 c 0.275184,-0.33158 0.236982,-0.39688 -0.232186,-0.39688 -0.322779,0 -0.561564,0.16876 -0.561564,0.39688 0,0.21828 0.104484,0.39687 0.232187,0.39687 0.127702,0 0.380406,-0.17859 0.561563,-0.39687 z m -0.264583,-1.19063 c 0,-0.14552 -0.126089,-0.26458 -0.280198,-0.26458 -0.154109,0 -0.206614,0.11906 -0.116677,0.26458 0.08994,0.14552 0.216026,0.26458 0.280198,0.26458 0.06417,0 0.116677,-0.11906 0.116677,-0.26458 z m -1.394575,-0.68902 c -0.08792,-0.0879 -0.316122,-0.0973 -0.507118,-0.0209 -0.211067,0.0845 -0.148372,0.14716 0.159852,0.15985 0.278915,0.0115 0.435185,-0.0511 0.347266,-0.13896 z m -1.322917,-0.52917 c -0.08792,-0.0879 -0.316122,-0.0973 -0.507118,-0.0209 -0.211066,0.0845 -0.148372,0.14716 0.159853,0.15986 0.278915,0.0115 0.435184,-0.0511 0.347265,-0.13897 z m 25.905435,3.94503 c -0.0931,-0.0931 -0.16541,-0.35772 -0.16078,-0.58812 0.005,-0.23041 0.1775,-0.64222 0.38417,-0.91513 0.22175,-0.29285 0.5474,-0.43034 0.79458,-0.33549 0.37827,0.14516 0.37968,0.23646 0.0146,0.94245 -0.22234,0.42995 -0.50755,0.84557 -0.63381,0.9236 -0.12626,0.078 -0.3057,0.0657 -0.39876,-0.0273 z m -7.728207,-1.51529 c -0.08842,-0.35229 -0.120454,-0.83483 -0.07119,-1.07231 0.04927,-0.23747 0.208639,-0.44189 0.35416,-0.45426 0.145521,-0.0124 0.399636,0.2421 0.564701,0.56548 0.165065,0.32338 0.240475,0.81604 0.167579,1.09479 -0.0729,0.27876 -0.294978,0.50683 -0.493515,0.50683 -0.198536,0 -0.433319,-0.28824 -0.521738,-0.64053 z m 18.970147,-0.0377 c -0.30977,-0.3938 -0.56321,-0.87854 -0.56321,-1.0772 0,-0.19866 0.20906,-0.36119 0.46457,-0.36119 0.26444,0 0.62001,0.35113 0.82536,0.81505 0.23829,0.53832 0.27178,0.90407 0.0986,1.07721 -0.17314,0.17313 -0.45338,0.019 -0.82536,-0.45387 z m -9.68376,-1.69071 c -0.089,-0.14405 0.0288,-0.55293 0.26188,-0.90862 0.23306,-0.35569 0.58356,-0.70804 0.77888,-0.78299 0.19532,-0.075 0.42631,-0.0651 0.51329,0.0219 0.087,0.087 0.15816,0.3088 0.15816,0.49292 0,0.18412 -0.34883,0.58315 -0.77517,0.88673 -0.45967,0.32731 -0.84106,0.44538 -0.93704,0.29008 z m 7.35757,-1.11869 c -0.31479,-0.15228 -0.63389,-0.51223 -0.70912,-0.79989 -0.11844,-0.45293 -0.0419,-0.49922 0.57087,-0.34542 0.3892,0.0977 0.85713,0.30168 1.03985,0.45332 0.18271,0.15164 0.33221,0.43972 0.33221,0.64018 0,0.20047 -0.14883,0.35642 -0.33073,0.34657 -0.1819,-0.01 -0.58829,-0.14249 -0.90308,-0.29476 z M 91.853637,205.4787 c -0.244171,-0.47218 -0.298387,-0.88229 -0.148655,-1.12448 0.204181,-0.33026 0.287712,-0.32817 0.624728,0.0156 0.213968,0.21828 0.469306,0.7243 0.567418,1.12448 0.137885,0.56241 0.08331,0.7276 -0.240378,0.7276 -0.23032,0 -0.591721,-0.33446 -0.803113,-0.74325 z m 13.120543,-0.51049 c 0.0487,-0.25299 0.305,-0.50165 0.5695,-0.55259 0.2645,-0.0509 0.76494,-0.0213 1.1121,0.0658 0.42014,0.10545 0.58061,0.29022 0.47993,0.5526 -0.0988,0.2575 -0.51513,0.39417 -1.20069,0.39417 -0.85439,0 -1.03296,-0.0855 -0.96084,-0.45998 z m -34.798395,-0.51015 c -0.09701,-0.097 -0.176388,-0.4542 -0.176388,-0.79375 0,-0.33955 0.254676,-0.87204 0.565947,-1.18331 0.517507,-0.51751 0.761273,-0.55329 2.847985,-0.4181 1.496703,0.097 2.899252,0.38016 4.075553,0.82292 0.986434,0.3713 1.984137,0.8657 2.217119,1.09868 0.388416,0.38842 0.338027,0.40902 -0.606604,0.248 -0.566615,-0.0966 -1.446927,-0.28311 -1.95625,-0.41452 -0.509323,-0.1314 -1.949386,-0.23958 -3.200139,-0.24039 -1.939212,-10e-4 -2.344619,0.0765 -2.752986,0.52769 -0.26339,0.29104 -0.559655,0.52917 -0.658369,0.52917 -0.09871,0 -0.258854,-0.0794 -0.355868,-0.17639 z m 20.623834,-2.06326 c -0.235018,-0.35868 -0.427305,-0.83493 -0.427305,-1.05834 0,-0.2234 0.154781,-0.40618 0.343958,-0.40618 0.189177,0 0.486834,0.14288 0.661459,0.3175 0.174625,0.17463 0.3175,0.65088 0.3175,1.05833 0,0.40746 -0.105369,0.74084 -0.234154,0.74084 -0.128784,0 -0.426441,-0.29347 -0.661458,-0.65215 z m -1.863618,-3.18893 c -0.374194,-0.40376 -0.680354,-0.83579 -0.680354,-0.96006 0,-0.12427 0.23538,-0.22595 0.523067,-0.22595 0.287687,0 0.722105,0.30377 0.965373,0.67505 0.316013,0.48229 0.360923,0.75642 0.157287,0.96006 -0.203636,0.20364 -0.479283,0.0754 -0.965373,-0.4491 z m -2.693956,-2.09281 c -0.0797,-0.20769 -0.10573,-0.65418 -0.05784,-0.99218 0.04789,-0.33801 0.265663,-0.61456 0.483944,-0.61456 0.267624,0 0.423619,0.32313 0.478993,0.99219 0.06334,0.76537 -0.01416,0.99219 -0.339033,0.99219 -0.231633,0 -0.486361,-0.16994 -0.566062,-0.37764 z m -0.455842,-3.23834 c -0.09701,-0.097 -0.176389,-0.57326 -0.176389,-1.05833 0,-0.60252 0.124144,-0.88194 0.391834,-0.88194 0.215509,0 0.466474,0.29739 0.557701,0.66086 0.09123,0.36348 0.09723,0.83973 0.01335,1.05834 -0.08389,0.2186 -0.255478,0.39746 -0.381312,0.39746 -0.125835,0 -0.308165,-0.0794 -0.405179,-0.17639 z m -0.916472,-3.5954 c -0.15164,-0.18271 -0.357719,-0.65896 -0.457954,-1.05833 -0.134109,-0.53434 -0.08382,-0.72613 0.190395,-0.72613 0.204953,0 0.515517,0.14288 0.690142,0.3175 0.174625,0.17463 0.3175,0.65088 0.3175,1.05834 0,0.40745 -0.104484,0.74083 -0.232187,0.74083 -0.127702,0 -0.356255,-0.14949 -0.507896,-0.33221 z m -2.007613,-3.75952 c -0.235017,-0.35869 -0.427304,-0.7754 -0.427304,-0.92605 0,-0.15064 0.212454,-0.27389 0.47212,-0.27389 0.259666,0 0.673248,0.34048 0.91907,0.75663 0.245822,0.41614 0.370712,0.83286 0.277532,0.92604 -0.09318,0.0932 -0.314473,0.16942 -0.491765,0.16942 -0.177291,0 -0.514635,-0.29347 -0.749653,-0.65215 z m -2.387937,-2.65631 c -0.393242,-0.36445 -0.641727,-0.78117 -0.552187,-0.92605 0.08954,-0.14487 0.313612,-0.26341 0.497939,-0.26341 0.184327,0 0.606493,0.28884 0.938147,0.64187 0.331654,0.35303 0.523975,0.76975 0.42738,0.92604 -0.09659,0.1563 -0.270276,0.28417 -0.385959,0.28417 -0.115684,0 -0.532078,-0.29818 -0.92532,-0.66262 z m -3.000305,-1.8485 c -0.472943,-0.20556 -0.859896,-0.49153 -0.859896,-0.63549 0,-0.14396 0.115566,-0.33316 0.256813,-0.42046 0.141247,-0.0873 0.617498,0.0278 1.058334,0.25576 0.440836,0.22797 0.80152,0.59002 0.80152,0.80457 0,0.21454 -0.0893,0.38542 -0.198438,0.37972 -0.10914,-0.006 -0.58539,-0.17854 -1.058333,-0.3841 z"
       id="path1" /></g></svg>
