<svg xmlns="http://www.w3.org/2000/svg" viewBox="0 0 400 500" width="400" height="500" fill="none">
  <g stroke="#555" stroke-width="2.5" stroke-linecap="round" stroke-linejoin="round">
    <!-- Profile: forehead, brow, nose, lips, chin, neck, back of skull, occiput -->
    <path d="M220 52c-20 2-38 8-52 20-18 14-30 34-36 58-4 16-4 32 0 46 2 8 6 14 10 18l-4 6 14 10c-4 44-22 78-52 104-14 11-22 28-24 48l-2 36h90v-40c0-24 8-44 22-60 10-12 16-30 17-50 0-20-4-38-12-54-4-8-6-18-6-28 0-38 12-70 35-92"/>
    <!-- Forehead protrusion curve -->
    <path d="M228 56c16 8 28 20 36 36 10 20 14 44 12 68"/>
    <!-- Brow ridge -->
    <path d="M276 160c4 6 6 14 6 22"/>
    <!-- Nose (profile) -->
    <path d="M278 185c4 8 6 16 4 24-2 8-8 16-16 22"/>
    <!-- Upper lip / philtrum -->
    <path d="M268 236c-2 8-6 14-12 18"/>
    <!-- Lower lip / chin -->
    <path d="M258 262c-2 10-8 18-16 24-10 8-20 10-28 8"/>
    <!-- Ear (outer helix) -->
    <path d="M170 190c-10 6-16 16-16 28 0 12 6 22 16 30 6 4 12 6 18 6"/>
    <!-- Ear inner details (dashed) -->
    <path d="M172 200c-6 4-10 10-10 18 0 8 4 14 10 20" stroke-dasharray="4 5"/>
    <!-- Occiput / back of skull curve -->
    <path d="M120 102c-14 14-24 32-28 54-4 18-4 36 0 52"/>
    <!-- Nape hairline (dashed) -->
    <path d="M128 372c24 8 50 8 74 0" stroke-dasharray="6 6"/>
    <!-- Neck left column -->
    <path d="M142 418v38"/>
    <!-- Neck right column -->
    <path d="M232 418v38"/>
    <!-- Shoulder suggestion -->
    <path d="M114 456c8 4 18 6 28 6h100c10 0 20-2 28-6"/>
  </g>
</svg>
